<svg width="64" height="65" viewBox="0 0 64 65" fill="none" xmlns="http://www.w3.org/2000/svg">
    <path d="M42.14 25.1057C42.0628 25.1829 41.9853 25.2582 41.9043 25.3395C37.3912 29.7389 31.7143 31.2391 29.2237 28.686C28.0894 27.5229 27.8099 25.7183 28.2721 23.6837C20.8496 24.5544 13.9638 27.9886 8.80244 33.3934C3.64111 38.7982 0.527946 45.835 0 53.2897H64C63.5522 46.9568 61.2364 40.8984 57.3454 35.8816C53.4541 30.865 48.1627 27.1149 42.14 25.1057ZM18.0905 41.6678C17.4952 41.6678 16.9132 41.4914 16.4182 41.1605C15.9232 40.8299 15.5374 40.3596 15.3095 39.8096C15.0817 39.2596 15.0221 38.6544 15.1382 38.0704C15.2544 37.4864 15.541 36.9503 15.962 36.5292C16.383 36.1083 16.9194 35.8215 17.5033 35.7054C18.0872 35.5893 18.6924 35.6489 19.2425 35.8767C19.7925 36.1045 20.2626 36.4903 20.5934 36.9854C20.9241 37.4805 21.1007 38.0623 21.1007 38.6577C21.1003 39.4559 20.7831 40.2215 20.2186 40.7859C19.6542 41.3503 18.8888 41.6675 18.0905 41.6678ZM43.7165 41.6678C43.1212 41.6678 42.5391 41.4914 42.0443 41.1605C41.5492 40.8299 41.1634 40.3596 40.9356 39.8096C40.7078 39.2596 40.6479 38.6544 40.7643 38.0704C40.8804 37.4864 41.1669 36.9503 41.5881 36.5292C42.0089 36.1083 42.5453 35.8215 43.1293 35.7054C43.7133 35.5893 44.3185 35.6489 44.8685 35.8767C45.4185 36.1045 45.8885 36.4903 46.2194 36.9854C46.5503 37.4805 46.7267 38.0623 46.7267 38.6577C46.7264 39.4559 46.4092 40.2212 45.8447 40.7859C45.2803 41.3503 44.515 41.6675 43.7168 41.6678" fill="#B52426"/>
    <path d="M42.14 25.1058C38.8696 24.0186 35.4454 23.466 31.9992 23.4695C30.7538 23.4694 29.5094 23.5411 28.2721 23.684C28.8208 21.2534 30.4245 18.4885 32.8803 16.0925C37.3926 11.6898 43.0711 10.1916 45.5617 12.7461C48.0086 15.2541 46.4698 20.7391 42.14 25.1058Z" fill="#B52426"/>
</svg>
