<svg width="64" height="65" viewBox="0 0 64 65" fill="none" xmlns="http://www.w3.org/2000/svg">
    <g clip-path="url(#clip0_733_274)">
        <path d="M10.6586 21.0769C10.6586 21.0769 10.5889 21.0769 10.575 21.049L9.10511 18.4087C9.10511 18.4087 9.10511 18.3391 9.12601 18.3251L11.2438 17.1478C11.2438 17.1478 11.3274 17.1478 11.3413 17.1757L11.7523 17.9211C11.7523 17.9211 11.7523 18.0047 11.7245 18.0186L10.568 18.6595L10.7213 18.9312L11.7872 18.3391C11.7872 18.3391 11.8708 18.3391 11.8847 18.3669L12.2748 19.0636C12.2748 19.0636 12.2748 19.1472 12.2469 19.1611L11.1811 19.7533L11.5851 20.4778C11.5851 20.4778 11.5851 20.5474 11.5642 20.5614L10.6586 21.0629V21.0769Z" fill="#040000"/>
        <path d="M14.0931 19.2099C14.0931 19.2099 14.0931 19.2796 14.0652 19.2935L13.1317 19.7394C13.1317 19.7394 13.0621 19.7394 13.0481 19.7115L11.7524 16.9807C11.7524 16.9807 11.7524 16.911 11.7802 16.8971L12.7137 16.4512C12.7137 16.4512 12.7834 16.4512 12.7973 16.4791L14.0931 19.2099Z" fill="#040000"/>
        <path d="M15.1659 17.74L16.2457 17.3011C16.2457 17.3011 16.3293 17.315 16.3363 17.3429L16.6567 18.1301C16.6567 18.1301 16.6498 18.2137 16.6219 18.2276L14.525 19.0845C14.525 19.0845 14.4553 19.0845 14.4414 19.0496L13.3059 16.2492C13.3059 16.2492 13.3059 16.1795 13.3407 16.1656L14.3021 15.7755C14.3021 15.7755 14.3717 15.7755 14.3857 15.8103L15.1729 17.7469L15.1659 17.74Z" fill="#040000"/>
        <path d="M19.6104 13.9642C19.6104 13.9642 19.6801 13.9782 19.6871 14.006L20.5718 16.8971C20.5718 16.8971 20.5579 16.9667 20.53 16.9737L19.5408 17.2802C19.5408 17.2802 19.4711 17.2663 19.4641 17.2384L19.0949 16.0332H19.088C19.088 16.0332 19.0671 16.1656 18.9835 16.4094L18.6839 17.2942L17.9385 16.7299C17.7295 16.5766 17.6459 16.4791 17.6459 16.4791H17.632L18.0012 17.6843C18.0082 17.7121 17.9873 17.7539 17.9594 17.7609L16.9702 18.0674C16.9702 18.0674 16.9005 18.0535 16.8936 18.0256L16.0088 15.1346C16.0088 15.1346 16.0228 15.0649 16.0506 15.058L16.9145 14.7932C16.9145 14.7932 16.9841 14.7932 17.019 14.8141L18.1893 15.6919H18.1963L18.67 14.3056C18.6839 14.2638 18.7118 14.2359 18.7466 14.229L19.6104 13.9642Z" fill="#040000"/>
        <path d="M22.8707 16.3606C22.6547 16.5208 22.3622 16.6393 22.0765 16.702C21.2336 16.8761 20.739 16.4999 20.6345 16.0123C20.5718 15.7058 20.6763 15.4062 20.9341 15.1415C20.7042 14.9743 20.5997 14.828 20.5579 14.619C20.4743 14.201 20.732 13.6646 21.5053 13.5044C22.2786 13.3442 22.7314 13.7343 22.8219 14.1801C22.8846 14.4867 22.7592 14.8001 22.4806 15.0649L22.6756 15.1903C22.7244 15.0858 22.7592 14.9743 22.7732 14.8698C22.7732 14.821 22.801 14.7862 22.8568 14.7792L23.7067 14.6051C23.7624 14.5912 23.7972 14.626 23.8042 14.6608V14.7026C23.8599 14.9464 23.7763 15.3505 23.5186 15.7267L24.1734 16.1377C24.1734 16.1377 24.2013 16.1586 24.2082 16.1795C24.2082 16.1934 24.2082 16.2143 24.1734 16.2213L23.0658 16.4512C23.0658 16.4512 23.0031 16.4581 22.9752 16.4372L22.8637 16.3676L22.8707 16.3606ZM21.6934 14.5563C21.8188 14.4588 21.8466 14.4031 21.8397 14.3473C21.8257 14.2986 21.77 14.2428 21.6725 14.2637C21.575 14.2846 21.5401 14.3473 21.5541 14.41C21.568 14.4588 21.6028 14.4936 21.7004 14.5563H21.6934ZM22.0417 15.8381L21.7213 15.6361C21.6446 15.6918 21.6377 15.7476 21.6516 15.7824C21.6655 15.8521 21.7631 15.9078 21.9024 15.873C21.9511 15.859 21.9999 15.8451 22.0417 15.8312V15.8381Z" fill="#040000"/>
        <path d="M27.8097 12.6057C27.8097 12.6057 27.8724 12.6266 27.8794 12.6614L28.2277 15.664C28.2277 15.664 28.2068 15.7266 28.172 15.7336L27.141 15.852C27.141 15.852 27.0783 15.8311 27.0713 15.7963L26.925 14.5493H26.918C26.918 14.5493 26.8762 14.6747 26.7509 14.8977L26.2911 15.7127L25.6571 15.023C25.483 14.835 25.4203 14.7235 25.4203 14.7235H25.4063L25.5526 15.9774C25.5526 16.0053 25.5317 16.0401 25.4969 16.0471L24.4659 16.1655C24.4659 16.1655 24.4032 16.1446 24.3962 16.1098L24.0479 13.1073C24.0479 13.1073 24.0688 13.0446 24.1036 13.0376L25.0023 12.9331C25.0371 12.9331 25.072 12.9401 25.1068 12.9749L26.096 14.0478H26.103L26.8205 12.7729C26.8414 12.7311 26.8762 12.7172 26.9111 12.7102L27.8097 12.6057Z" fill="#040000"/>
        <path d="M31.92 14.0339C31.9478 15.051 31.1606 15.6849 30.2202 15.7128C29.2867 15.7407 28.4507 15.1555 28.4228 14.1384C28.395 13.1213 29.1891 12.4874 30.1226 12.4595C31.0701 12.4316 31.8921 13.0168 31.92 14.0339ZM29.5862 14.1105C29.6002 14.5007 29.8858 14.7236 30.1923 14.7166C30.4988 14.7096 30.7775 14.4658 30.7635 14.0757C30.7496 13.6717 30.464 13.4487 30.1575 13.4557C29.8509 13.4627 29.5723 13.7065 29.5862 14.1105Z" fill="#040000"/>
        <path d="M33.5223 13.5253C33.6129 13.7831 33.6686 14.0826 33.6686 14.0826H33.6965C33.6965 14.0826 33.787 13.7831 33.8915 13.5393L34.3025 12.6267C34.3304 12.5709 34.3583 12.564 34.414 12.564L35.5077 12.6127C35.5077 12.6127 35.5495 12.6336 35.5495 12.6545C35.5495 12.6685 35.5356 12.6894 35.5077 12.7521L34.1284 15.7058L33.0834 15.657L31.9688 12.5918C31.9479 12.5291 31.934 12.5082 31.9409 12.4873C31.9409 12.4734 31.9549 12.4525 31.9827 12.4525L33.0765 12.5013C33.1392 12.5013 33.16 12.5152 33.1879 12.5709L33.5153 13.5114L33.5223 13.5253Z" fill="#040000"/>
        <path d="M36.7825 15.8661C36.7825 15.8661 36.7476 15.9288 36.7128 15.9218L35.6818 15.8173C35.6818 15.8173 35.626 15.7825 35.626 15.7476L35.9326 12.7382C35.9326 12.7382 35.9674 12.6755 36.0022 12.6824L37.0332 12.7869C37.0332 12.7869 37.089 12.8218 37.089 12.8566L36.7825 15.8661Z" fill="#040000"/>
        <path d="M38.4963 15.0161L38.4615 15.246L39.9662 15.4759C39.9662 15.4759 40.0289 15.5316 40.0219 15.5595L39.9105 16.2979C39.9105 16.2979 39.8617 16.3676 39.8269 16.3606L37.2354 15.9635C37.2354 15.9635 37.1796 15.9217 37.1866 15.8939L37.6464 12.9053C37.6464 12.9053 37.6882 12.8495 37.7161 12.8495L40.3075 13.2466C40.3075 13.2466 40.3702 13.3024 40.3633 13.3302L40.2518 14.0687C40.2518 14.0687 40.203 14.1383 40.1682 14.1314L38.6635 13.9015L38.6286 14.1383L39.9871 14.3473C39.9871 14.3473 40.0498 14.403 40.0428 14.4309L39.9314 15.1694C39.9314 15.1694 39.8826 15.239 39.8478 15.232L38.4963 15.0231V15.0161Z" fill="#040000"/>
        <path d="M43.7836 15.4898C43.7418 15.4759 43.7209 15.4411 43.714 15.3853C43.707 15.1346 43.5746 14.9743 43.3378 14.9116C43.0731 14.842 42.7526 14.9952 42.6551 15.3853C42.5575 15.7615 42.7456 16.0541 43.0243 16.1307C43.2472 16.1865 43.4423 16.1307 43.5816 15.9357C43.6164 15.8869 43.6582 15.866 43.707 15.88L44.6335 16.1238C44.6753 16.1377 44.7171 16.1865 44.7032 16.2422C44.5081 17.0015 43.6791 17.3429 42.7805 17.106C41.8609 16.8622 41.3036 16.0332 41.5474 15.0997C41.7912 14.1662 42.6829 13.7134 43.6025 13.9572C44.536 14.2011 45.0445 14.9534 44.8564 15.671C44.8425 15.7267 44.8007 15.7615 44.745 15.7476L43.7976 15.4968L43.7836 15.4898Z" fill="#040000"/>
        <path d="M46.02 16.9807L47.1277 17.3568C47.1277 17.3568 47.1834 17.4195 47.1695 17.4474L46.8908 18.2485C46.8908 18.2485 46.8281 18.3043 46.8002 18.2973L44.6546 17.5658C44.6546 17.5658 44.6058 17.5171 44.6198 17.4892L45.602 14.633C45.602 14.633 45.6508 14.5842 45.6787 14.5912L46.6609 14.9256C46.6609 14.9256 46.7097 14.9743 46.6957 15.0022L46.02 16.9807Z" fill="#040000"/>
        <path d="M50.158 16.3676C50.158 16.3676 50.2137 16.3188 50.2416 16.3328L51.189 16.7438C51.189 16.7438 51.2308 16.7995 51.2169 16.8274L50.6108 18.2137C50.2067 19.1472 49.4056 19.4607 48.4442 19.0496C47.4898 18.6386 47.1694 17.8305 47.5734 16.897L48.1795 15.5107C48.1795 15.5107 48.2352 15.462 48.2631 15.4759L49.2105 15.8869C49.2105 15.8869 49.2523 15.9426 49.2384 15.9705L48.6463 17.3359C48.4721 17.733 48.5557 18.0117 48.8413 18.137C49.1269 18.2624 49.3847 18.1301 49.5589 17.733L50.151 16.3676H50.158Z" fill="#040000"/>
        <path d="M50.353 19.8578C50.353 19.8578 50.3182 19.802 50.3321 19.7742L51.809 17.1339C51.809 17.1339 51.8647 17.0921 51.8926 17.1061L53.4739 17.9908C54.0939 18.3391 54.2263 18.8755 53.9894 19.3005C53.878 19.4955 53.7177 19.6209 53.5088 19.6766C53.6132 19.9344 53.5993 20.2061 53.453 20.4638C53.1604 20.9933 52.5962 21.1048 51.9274 20.7355L50.36 19.8578H50.353ZM51.7463 19.6139L52.1573 19.8438C52.3245 19.9344 52.422 19.9205 52.4777 19.816C52.5335 19.7115 52.4986 19.6139 52.3314 19.5234L51.9204 19.2935L51.7393 19.6139H51.7463ZM52.2687 18.6735L52.6519 18.8894C52.7843 18.9661 52.8609 18.9312 52.9027 18.8546C52.9445 18.778 52.9236 18.6874 52.7773 18.6038L52.415 18.4018L52.2618 18.6735H52.2687Z" fill="#040000"/>
        <path d="M21.9787 31.3174C21.9717 31.2268 21.9508 31.1293 21.8951 31.0596C21.909 31.1571 21.8951 31.2686 21.8394 31.3522C21.8045 31.394 21.7488 31.4079 21.707 31.4358C21.5189 31.2477 21.3657 30.983 21.094 30.9203C20.9407 30.8855 20.7805 30.9133 20.6412 30.983C20.6621 30.969 20.683 30.9551 20.7108 30.9342C20.8083 30.8576 21.0034 30.7601 21.0731 30.7322C21.1149 30.7183 21.2054 30.6834 21.2821 30.6974C21.4284 30.7113 21.7 30.8576 21.8672 30.9899C21.7 30.6556 21.3935 30.2933 20.9755 30.356C20.683 30.3839 20.3834 30.4814 20.1396 30.6556C19.9515 30.8437 19.7704 31.0875 19.7355 31.3592C19.7216 31.6169 19.9167 31.7911 20.1674 31.7841C20.4809 31.7702 20.7456 31.5751 21.0034 31.4149C21.0104 31.4149 21.0243 31.4149 21.0313 31.4079C21.0382 31.4079 21.0522 31.4079 21.0591 31.4079C21.1149 31.4149 21.2542 31.5055 21.4214 31.603C21.5468 31.6727 21.7 31.7493 21.8254 31.6378C21.916 31.5542 22.0066 31.4497 21.9926 31.3174H21.9787Z" fill="#040000"/>
        <path d="M44.5918 26.6987C44.6196 26.65 44.6405 26.6012 44.6754 26.5594C44.9192 26.2947 45.0864 25.9673 45.2187 25.6329C45.3163 25.3333 45.3302 25.0129 45.2884 24.6994C45.2257 24.2187 44.8844 23.8495 44.6266 23.4594C44.6266 23.4594 44.6266 23.4524 44.6266 23.4454C44.6266 23.3967 44.6266 23.3549 44.6266 23.3061C44.6266 23.3061 44.6266 23.2922 44.6266 23.2852C44.6336 23.2364 44.6475 23.1946 44.6545 23.1459C44.6823 22.9508 44.7381 22.7627 44.752 22.5677C44.759 22.3865 44.7381 22.2054 44.6893 22.0313C44.5639 21.662 44.6545 21.9198 44.5012 21.5297C44.334 21.2092 44.0693 20.9306 43.721 20.7982C43.512 20.7146 43.2821 20.6937 43.0592 20.6798C42.7735 20.6937 42.5088 20.7982 42.2441 20.9097C42.2232 20.9097 42.2093 20.8957 42.1884 20.8888C41.9445 20.7494 41.7077 20.6031 41.4917 20.429C41.2758 20.2688 41.0528 20.1085 40.7881 20.0458C40.5513 20.004 40.2865 20.0319 40.0776 20.1503C39.6596 20.3942 39.4297 21.056 39.3948 21.2232C39.374 21.258 39.36 21.2998 39.3391 21.3346C39.3322 21.3346 39.3252 21.3346 39.3182 21.3346C39.1789 21.3486 39.0326 21.3555 38.8933 21.3973C38.8027 21.4182 38.6982 21.4391 38.6564 21.5227C38.6425 21.2232 38.5519 20.9445 38.329 20.7216C38.1339 20.5126 37.8553 20.4011 37.6184 20.2618C37.4652 20.1852 37.3049 20.1085 37.1377 20.0667C36.8452 19.9971 36.5526 19.9692 36.253 19.9413C36.2391 19.9413 36.2182 19.9344 36.2043 19.9274C36.2043 19.9274 36.2043 19.9274 36.1973 19.9204C36.1694 19.8647 36.1416 19.809 36.1207 19.7533C36.0789 19.6279 36.0371 19.4955 35.9813 19.3701C35.8141 19.0775 35.5564 18.8198 35.2359 18.7013C34.8249 18.5968 34.386 18.569 33.968 18.6317C33.6824 18.6665 33.4107 18.7919 33.139 18.8894C32.8674 18.9869 32.7489 19.0218 32.6653 19.0357C32.6444 19.0218 32.6166 19.0078 32.5957 18.9869C32.4076 18.8267 32.2404 18.6386 32.0384 18.4854C31.9199 18.4018 31.7736 18.353 31.6413 18.2973C31.4253 18.2206 31.2024 18.1719 30.9725 18.1649C30.666 18.1858 30.3804 18.2903 30.0947 18.4087C29.8231 18.5132 29.5932 18.7083 29.3772 18.8964C29.2727 18.9869 29.1682 19.0705 29.0707 19.1681C28.9592 19.2865 28.8687 19.4189 28.7502 19.5303C28.7015 19.5443 28.6597 19.5512 28.6109 19.5652C28.4507 19.593 28.5064 19.5861 28.2278 19.607C28.0815 19.6279 27.9352 19.6279 27.7958 19.6766C27.4893 19.7811 27.2246 19.9622 26.9808 20.1712C26.8693 20.0249 26.7369 19.9135 26.6116 19.9344C26.3956 20.018 26.2911 20.1085 26.0821 20.1573C26.0682 20.1573 26.0612 20.1573 26.0542 20.1643C25.9567 20.1643 25.8522 20.1643 25.7547 20.1503C25.7268 20.1503 25.692 20.1364 25.6641 20.1294C25.6502 20.1225 25.6363 20.1155 25.6223 20.1016C25.3924 19.8856 25.2392 19.607 24.9745 19.4328C24.661 19.182 24.243 19.0775 23.8459 19.182C23.4906 19.2656 23.1353 19.4189 22.8845 19.6975C22.6407 19.9483 22.5223 20.2757 22.5084 20.624C22.4944 20.631 22.4805 20.638 22.4596 20.6519C22.3621 20.6867 22.2645 20.7216 22.167 20.7494C21.6167 20.8748 21.2056 21.3277 20.934 21.8014C20.8155 22.0034 20.6762 22.2124 20.6623 22.4562C20.6553 22.5607 20.6623 22.6652 20.6971 22.7627C20.6971 22.7767 20.7041 22.7836 20.711 22.7976C20.7319 22.8603 20.7598 22.923 20.7737 22.9856C20.7737 23.0065 20.7737 23.0344 20.7737 23.0553C20.7737 23.0832 20.7598 23.111 20.7528 23.1319C20.7319 23.1668 20.711 23.2016 20.6901 23.2364C20.6901 23.2364 20.6762 23.2364 20.6692 23.2434C20.4672 23.327 20.2931 23.4594 20.1328 23.6057C19.8751 23.8704 19.8263 24.2535 19.896 24.6018C19.9796 24.9641 20.2095 25.2846 20.5229 25.4866C20.7319 25.5911 20.9549 25.6816 21.1917 25.6607C21.2474 25.6607 21.4077 25.6329 21.4495 25.6259C21.4495 25.6259 21.4495 25.6259 21.4564 25.6259C21.4773 25.7583 21.5052 26.0718 21.5679 26.3643C21.5888 26.441 21.6167 26.5106 21.6515 26.5803C21.6794 26.65 21.7072 26.7266 21.763 26.7823C21.9162 26.9286 22.1182 27.0192 22.3203 27.0819C22.5014 27.1237 22.6895 27.0679 22.8567 26.9913C22.8706 26.9913 22.8845 26.9774 22.8915 26.9704C22.9194 27.0331 22.9472 27.1028 22.9751 27.1655C22.989 27.2003 23.0169 27.2978 23.0308 27.3536C23.0308 27.3605 23.0308 27.3745 23.0308 27.3814C23.0308 27.3814 23.0308 27.3814 23.0308 27.3884C22.9751 27.5695 22.989 27.5138 22.9472 27.6253C22.8636 27.8691 22.9263 28.1547 23.0935 28.3498C23.1075 28.3707 23.1284 28.3916 23.1423 28.4125C22.996 28.4543 22.8636 28.5239 22.7313 28.5936C22.7104 28.5936 22.6895 28.5936 22.6686 28.5936C22.6477 28.5936 22.6338 28.5866 22.6129 28.5796C22.2785 28.3985 21.9162 28.2801 21.547 28.1756C21.2196 28.0711 20.8713 28.0293 20.5299 28.0781C20.4951 28.0781 20.4602 28.085 20.4254 28.092C20.2443 28.1338 20.0701 28.2174 19.9238 28.3358C19.7706 28.4543 19.6452 28.5936 19.5337 28.7538C19.3665 29.0394 19.2551 29.3599 19.1297 29.6664C19.1227 29.6873 19.1088 29.7012 19.1018 29.7221C19.06 29.7639 19.0252 29.8057 18.9834 29.8475C18.7256 30.0008 18.4748 30.168 18.2519 30.37C18.1195 30.5024 18.0359 30.6835 17.9802 30.8577C17.8897 31.1224 17.8688 31.401 17.8897 31.6727C17.8897 31.8678 17.9384 32.0559 18.0638 32.2091C18.1404 32.3206 18.2171 32.4321 18.3285 32.5156C18.4191 32.6132 18.4957 32.7246 18.5654 32.8431C18.5445 32.7037 18.5097 32.5714 18.4539 32.439C18.44 32.4042 18.4121 32.3694 18.3982 32.3345C18.3843 32.2788 18.3494 32.2091 18.3355 32.1534C18.3007 32.021 18.2658 31.9583 18.2798 31.8678C18.2937 31.7772 18.3564 31.4916 18.4261 31.3244C18.5515 31.0736 18.5863 31.0179 18.6908 30.9203C18.7117 30.9064 18.7326 30.8995 18.7535 30.8855C19.3526 30.572 19.3944 30.6765 19.7915 30.3143C20.0562 30.0217 20.1677 29.6385 20.3766 29.3111C20.3766 29.3041 20.3906 29.2902 20.3975 29.2832C20.4672 29.2136 20.5369 29.1439 20.6135 29.0743C20.6344 29.0603 20.6483 29.0534 20.6692 29.0464C20.6832 29.0464 20.6971 29.0394 20.711 29.0394C20.8991 29.0116 20.8225 28.9976 21.1429 29.0116C21.6585 29.0812 21.6027 29.0673 22.1182 29.1648C22.3203 29.2136 22.5223 29.2902 22.7313 29.2484C22.9403 29.2275 23.1075 29.0882 23.2538 28.9489C23.2607 28.9419 23.2677 28.9349 23.2816 28.928C23.3443 28.8862 23.414 28.8444 23.4767 28.8165C23.5812 28.8165 23.7066 28.8513 23.8389 28.9071C23.8389 28.9349 23.8389 28.9558 23.8389 28.9837C23.8529 28.9628 23.8598 28.9419 23.8738 28.921C24.1037 29.0185 24.3475 29.1927 24.5007 29.4365C24.4589 29.1648 24.2151 28.8095 23.9225 28.5866C23.9086 28.4821 23.8598 28.4055 23.7414 28.3776C23.6996 28.3567 23.5812 28.3149 23.5812 28.308C23.5742 28.308 23.5394 28.2871 23.5255 28.2731C23.4767 28.2174 23.4558 28.1547 23.4279 28.0223C23.4279 28.0154 23.4279 28.0084 23.4279 27.9945C23.4279 27.9945 23.4279 27.9805 23.4279 27.9736C23.4349 27.9387 23.4488 27.9039 23.4558 27.8691C23.6926 27.5765 23.7971 27.3675 23.6439 26.7475C23.6369 26.6987 23.623 26.65 23.616 26.6012C23.6439 26.2738 23.6299 26.3713 23.6787 26.1693C23.6926 26.1344 23.6996 26.0996 23.7135 26.0648C23.7205 26.0509 23.7275 26.0369 23.7414 26.016C23.7623 25.9951 23.7832 25.9673 23.8111 25.9464C23.9295 25.8767 24.0549 25.8279 24.1664 25.7513C24.3893 25.612 24.5077 25.3681 24.5704 25.1243C24.654 24.8526 24.6958 24.567 24.647 24.2884C24.6192 24.1212 24.5425 23.9609 24.5077 23.7937C24.5077 23.7032 24.5077 23.6196 24.5077 23.529C24.5077 23.4245 24.5495 23.32 24.5704 23.2782C24.5843 23.2434 24.7376 23.118 24.8282 23.0344C24.9954 22.8951 25.1695 22.7279 25.3855 22.6652C25.2322 22.6443 25.0859 22.6791 24.9396 22.7279C24.7376 22.7976 24.5356 22.8672 24.3475 22.9647C24.0619 23.1528 23.9643 23.5151 23.9086 23.8355C23.9016 24.0376 23.9504 24.2466 23.9295 24.4486C23.9086 24.574 23.8598 24.6854 23.8111 24.8039C23.7832 24.8666 23.7553 24.9362 23.7205 24.9989C23.7205 24.9989 23.7066 24.9989 23.6996 25.0059C23.5603 25.0756 23.4001 25.1243 23.2747 25.2288C23.1423 25.3263 23.0308 25.4517 22.9542 25.598C22.787 25.9324 22.7731 26.3156 22.8149 26.6778C22.8149 26.7336 22.8427 26.7823 22.8636 26.8311C22.8706 26.859 22.8845 26.8799 22.8915 26.9077C22.6477 26.9495 22.4317 26.9356 22.2506 26.7405C22.0207 26.5385 22.0764 26.5733 22.0416 26.3365C22.0346 26.218 22.0555 26.0927 22.0555 25.9742C22.0695 25.7304 22.1322 25.4866 22.0695 25.2497C21.958 24.8735 21.5261 24.8735 21.1987 24.8596C21.1917 24.8596 21.1778 24.8596 21.1708 24.8526C21.122 24.8248 21.0733 24.7969 21.0245 24.769C20.9897 24.7342 20.9618 24.6994 20.927 24.6576C20.9131 24.6297 20.8991 24.6088 20.8852 24.5809C20.8713 24.5461 20.8643 24.5113 20.8504 24.4695C20.8504 24.4556 20.8504 24.4416 20.8434 24.4277C20.8434 24.3859 20.8434 24.3441 20.8434 24.3023C20.9061 24.2535 20.8782 24.2675 21.0733 24.163C21.4425 24.0306 21.6794 23.6614 21.7769 23.2922C21.8396 23.0274 21.8117 22.7558 21.7212 22.505C21.8048 22.3517 21.8953 22.2054 21.9928 22.0591C22.0764 21.9686 22.16 21.878 22.2506 21.8014C22.2785 21.7874 22.3063 21.7665 22.3342 21.7526C22.6895 21.6481 23.0866 21.5506 23.3304 21.265C23.421 21.1605 23.4837 21.0351 23.5185 20.9027C23.5463 20.7773 23.5394 20.6449 23.5463 20.5196C23.5533 20.4847 23.5672 20.4499 23.5812 20.4081C23.6021 20.3733 23.6299 20.3384 23.6508 20.3036C23.6857 20.2688 23.7205 20.2339 23.7553 20.1991C23.7693 20.1921 23.7832 20.1782 23.7971 20.1712C23.8807 20.1155 23.9643 20.0807 24.0549 20.0389C24.0967 20.0249 24.1664 19.9971 24.2221 19.9901C24.2709 19.9901 24.3127 19.9901 24.3614 19.9901C24.3893 19.9971 24.4171 20.004 24.445 20.018C24.4798 20.0319 24.5077 20.0458 24.5356 20.0528C24.5356 20.0528 24.5495 20.0528 24.5565 20.0598C24.9675 20.2479 25.2322 20.8052 25.9428 20.6171C26.103 20.5962 26.2493 20.5265 26.3817 20.429C26.4862 20.3593 26.5767 20.2757 26.6673 20.1921C26.6673 20.1921 26.6812 20.1782 26.6882 20.1712C26.7369 20.1921 26.7857 20.227 26.8414 20.2618C26.8345 20.2688 26.8205 20.2757 26.8136 20.2897C26.5628 20.5613 26.4374 20.9306 26.4374 21.2998C26.4374 21.5088 26.4513 21.4879 26.3886 21.6481C26.2075 21.9477 25.9776 22.2193 25.7268 22.4701C25.9846 22.3447 26.2214 22.1915 26.4444 22.0173C26.5349 21.9407 26.6325 21.8641 26.7091 21.7665C26.7509 21.6829 26.8066 21.6063 26.8275 21.5157C26.9459 21.0699 26.9599 21.0351 27.1689 20.8191C27.1828 20.7773 27.4336 20.6658 27.6495 20.5474C27.761 20.5126 27.8655 20.4708 27.977 20.4499C27.9839 20.4499 27.9909 20.4499 27.9979 20.4499C28.2626 20.4499 28.5273 20.4987 28.792 20.4499C29.2518 20.436 29.4678 20.1643 29.7673 19.8647C29.9484 19.7115 30.1365 19.5582 30.3246 19.4049C30.6242 19.2447 30.5197 19.3004 30.9725 19.1681C30.9864 19.1681 31.0073 19.1681 31.0213 19.1681C31.084 19.182 31.1536 19.2029 31.2163 19.2168C31.279 19.2377 31.3417 19.2586 31.4044 19.2795C31.4114 19.2795 31.4184 19.2865 31.4323 19.2935C31.7249 19.5582 31.9966 19.8856 32.3936 20.004C32.8743 20.1016 33.3411 19.8577 33.78 19.7045C34.177 19.5861 34.1004 19.6139 34.2885 19.6C34.4627 19.6 34.6438 19.6 34.8179 19.6279C34.8388 19.6279 34.8667 19.6348 34.8876 19.6418C34.8946 19.6418 34.9085 19.6557 34.9155 19.6557C34.9573 19.6975 34.9991 19.7393 35.0409 19.7881C35.1384 20.0667 35.222 20.3663 35.431 20.5892C35.5703 20.7425 35.7584 20.84 35.9535 20.8957C36.1416 20.9375 36.3366 20.9445 36.5247 20.9654C36.5665 20.9654 36.5735 20.9654 36.5735 20.9654C36.7825 20.9933 36.9845 21.042 37.1795 21.1326C37.1377 21.1117 37.0959 21.0978 37.0611 21.0769C37.1168 21.1047 37.1795 21.1256 37.2353 21.1535C37.3676 21.2162 37.5 21.2789 37.6393 21.3416C37.6254 21.3416 37.6115 21.3277 37.6045 21.3277C37.6184 21.3277 37.6324 21.3416 37.6463 21.3486C37.6742 21.3764 37.702 21.4043 37.7369 21.4321C37.7369 21.4321 37.7369 21.4391 37.7369 21.4461C37.7508 21.4809 37.7578 21.5088 37.7717 21.5436C37.7717 21.5715 37.7856 21.6063 37.7856 21.6342C37.7856 21.5924 37.7787 21.5575 37.7717 21.5157C37.7717 21.5784 37.7856 21.6342 37.7926 21.6969C37.7926 21.6969 37.7926 21.7038 37.7926 21.7108C37.7926 21.7108 37.7926 21.7247 37.7926 21.7387C37.7717 22.1358 37.8135 22.5328 38.1966 22.7488C38.4126 22.8603 38.6564 22.8603 38.8863 22.8881C38.9629 22.9021 39.0396 22.916 39.1162 22.9439C39.4506 23.0692 39.3531 22.9996 39.5551 23.2016C39.5551 23.1946 39.5551 23.2016 39.569 23.2225C39.576 23.2434 39.5899 23.2643 39.5969 23.2852C39.6247 23.3618 39.6665 23.4245 39.6805 23.5012C39.6944 23.5987 39.7014 23.6893 39.7083 23.7868C39.7083 23.9122 39.6456 24.0306 39.6108 24.156C39.5969 24.2117 39.569 24.2675 39.569 24.3232C39.5829 24.2675 39.6247 24.2257 39.6596 24.1769C39.7432 24.0515 39.8546 23.94 39.8895 23.7868C39.9104 23.6614 39.9452 23.543 39.9452 23.4176C39.9452 23.327 39.9243 23.2434 39.9104 23.1528C39.8895 22.9856 39.785 22.8324 39.6735 22.7C39.5202 22.5746 39.36 22.4562 39.1789 22.3726C38.9699 22.2751 38.7818 22.2263 38.6703 22.1845C38.6982 22.1079 38.7261 22.0382 38.7539 21.9616C38.7679 21.9128 38.8515 21.7665 38.8793 21.7038C38.9142 21.7038 38.956 21.7038 38.9908 21.7038C39.0117 21.7038 39.0674 21.7038 39.1023 21.7108C39.2416 21.7317 39.3809 21.7665 39.5202 21.7317C39.771 21.6551 39.8964 21.3903 40.0218 21.1814C40.1472 20.9933 40.0706 21.0908 40.2726 20.8748C40.2935 20.8609 40.3074 20.847 40.3214 20.833C40.3492 20.8191 40.3771 20.7982 40.405 20.7843C40.405 20.7843 40.405 20.7843 40.4119 20.7843C40.4468 20.7843 40.4886 20.7843 40.5164 20.7843C40.7742 20.9375 40.7603 20.9863 41.1086 21.2928C41.3594 21.4948 41.6171 21.7178 41.9306 21.8223C42.1187 21.8919 42.3277 21.9128 42.5158 21.8362C42.5994 21.8014 42.676 21.7735 42.7526 21.7387C42.8502 21.7038 42.9477 21.669 43.0522 21.6481C43.094 21.6481 43.1358 21.6481 43.1776 21.662C43.1985 21.662 43.2194 21.662 43.2403 21.676C43.2751 21.676 43.303 21.6899 43.3378 21.7038C43.3378 21.7038 43.3518 21.7038 43.3587 21.7108C43.3796 21.7247 43.3936 21.7317 43.4075 21.7456C43.4353 21.7665 43.4562 21.7874 43.4771 21.8153C43.5189 21.878 43.5538 21.9407 43.5816 22.0104C43.5816 22.0243 43.5886 22.0313 43.5956 22.0452C43.6025 22.0661 43.6095 22.08 43.6165 22.1009C43.6443 22.1845 43.6722 22.2681 43.6861 22.3587C43.6861 22.4144 43.6861 22.4632 43.6861 22.5189C43.6304 22.8254 43.5398 23.1319 43.5677 23.4454C43.5816 23.6196 43.6234 23.7937 43.721 23.94C43.8464 24.1212 43.9718 24.2953 44.0972 24.4765C44.1529 24.56 44.1947 24.6436 44.2295 24.7342C44.2295 24.7342 44.2295 24.7412 44.2295 24.7481C44.2295 24.7551 44.2295 24.7621 44.2295 24.769C44.2295 24.8178 44.2295 24.8666 44.2365 24.9153C44.2365 24.9711 44.2365 25.0198 44.2365 25.0756C44.2225 25.1452 44.2086 25.2079 44.1807 25.2706C44.1041 25.4308 44.0275 25.598 43.916 25.7374C43.8951 25.7583 43.8812 25.7722 43.8603 25.7931C43.5677 26.1205 43.4423 26.5803 43.5259 27.0192C43.5538 27.2073 43.6304 27.3814 43.6652 27.5626C43.7279 27.9248 43.7001 27.681 43.714 27.9875C43.6165 28.2174 43.6652 28.1547 43.5816 28.2801C43.2542 28.3428 43.1079 28.5448 43.0731 28.8722C43.0522 29.0743 43.0592 29.2832 43.0383 29.4853C43.0034 29.7361 43.0383 29.6664 42.9756 29.8824C42.9477 29.8963 42.9129 29.9033 42.878 29.9102C42.7108 29.952 42.5088 29.952 42.3138 30.0078C42.272 30.0217 42.2232 30.0287 42.1744 30.0356C42.0908 29.8197 41.9863 29.6107 41.8818 29.4017C41.847 29.332 41.8052 29.2554 41.7704 29.1857C41.7704 29.1718 41.7634 29.1579 41.7565 29.1439C41.7425 29.0952 41.7356 29.0534 41.7286 29.0046C41.7147 28.8653 41.7147 28.7259 41.7286 28.5936C41.8052 28.294 41.8958 27.9945 41.9236 27.688C41.9515 27.2839 41.8888 26.859 41.6729 26.5176C41.5893 26.3852 41.4778 26.2738 41.3524 26.1762C41.227 26.0718 41.1016 25.9673 40.9693 25.8767C40.5095 25.5841 40.1472 25.1592 39.7919 24.6924C39.987 25.2358 40.2238 25.7861 40.6279 26.2111C40.8996 26.5176 41.0737 26.7614 41.0877 26.8381C41.1086 26.8938 41.1155 26.9495 41.1295 27.0122C41.1295 27.054 41.1295 27.0958 41.1295 27.1376C41.1364 27.4859 41.0946 27.6113 40.9066 28.085C40.7254 28.4752 40.6906 28.921 40.7603 29.3459C40.809 29.6176 40.9623 29.8615 41.0737 30.1122C41.2827 30.5511 41.2549 30.5024 41.3106 30.7671C41.3106 30.8646 41.3106 30.9552 41.3106 31.0527C41.2688 31.2199 41.2131 31.3801 41.1504 31.5404C41.0946 31.6588 41.0389 31.7842 40.9693 31.8956C40.8648 32.0001 40.7672 32.1116 40.6976 32.244C40.614 32.4112 40.5652 32.5992 40.5722 32.7873C40.5931 33.0381 40.614 33.2819 40.6279 33.5327C40.614 33.9368 40.6209 33.8253 40.5791 34.0343C40.5513 34.1597 40.5164 34.2851 40.4677 34.4035C40.4537 34.4384 40.4328 34.4732 40.4189 34.508C40.4189 34.515 40.4119 34.522 40.405 34.5289C40.3632 34.5707 40.3144 34.6125 40.2656 34.6543C40.2169 34.6892 40.1681 34.717 40.1124 34.7379C40.0845 34.7449 40.0636 34.7588 40.0427 34.7728C40.0009 34.7867 39.9522 34.8006 39.9104 34.8215C39.9243 34.8215 39.9313 34.8146 39.9104 34.8215C39.7501 34.8563 39.5899 34.919 39.4645 35.0305C39.1441 35.3092 39.0187 35.7271 38.8863 36.1173C38.8863 36.1242 38.8863 36.1312 38.8793 36.1382C38.8097 36.2845 38.733 36.4307 38.6564 36.577C38.6286 36.6049 38.6007 36.6397 38.5728 36.6676C38.5519 36.6815 38.531 36.6955 38.5101 36.7024C38.4823 36.7164 38.4474 36.7373 38.4196 36.7512C38.4614 36.7373 38.5032 36.7164 38.545 36.7024C38.4683 36.7303 38.3917 36.7651 38.3151 36.8C38.2802 36.8139 38.2384 36.8209 38.2036 36.8348C38.113 36.8139 38.0225 36.793 37.9319 36.7582C37.7578 36.6885 37.5836 36.6397 37.3955 36.6258C37.2562 36.6328 37.1168 36.6537 36.9845 36.6955C36.7337 36.7791 36.4899 36.8766 36.2669 37.0229C36.0231 37.1831 35.8211 37.3921 35.6121 37.6011C35.4031 37.824 35.1732 38.0261 34.9364 38.2211C34.8458 38.3117 34.7483 38.3883 34.6438 38.4719C34.6229 38.4858 34.602 38.4998 34.5881 38.5067C34.5254 38.5067 34.4627 38.5137 34.4 38.5137C34.3651 38.5137 34.3303 38.5137 34.2955 38.5137C34.2815 38.5137 34.2746 38.5137 34.2606 38.5067C33.9889 38.4371 33.7312 38.3326 33.4525 38.3117C32.937 38.2699 32.519 38.5137 32.2334 38.9177C32.1568 38.9177 32.0802 38.9595 32.0175 39.0013C31.9478 39.0501 31.8642 39.0849 31.7876 39.1198C31.7736 39.1198 31.7597 39.1267 31.7388 39.1337C31.7249 39.1337 31.704 39.1337 31.697 39.1407C31.6691 39.1407 31.6482 39.1407 31.6204 39.1407C31.5786 39.1407 31.3905 39.1198 31.3766 39.1198C31.2651 39.0989 31.1467 39.0431 31.0352 39.0849C30.9586 39.0571 30.8819 39.0362 30.8053 39.0222C30.7008 38.9944 30.5894 38.9804 30.4779 38.9944C30.4779 38.9944 30.4779 38.9944 30.4709 38.9944C30.457 38.9944 30.45 38.9944 30.45 38.9944C30.4361 38.9944 30.4152 38.9944 30.4013 38.9874C30.2271 38.9804 30.0599 39.0292 29.9066 39.0919C29.7604 39.1407 29.621 39.1894 29.4747 39.2452C29.4747 39.2452 29.4817 39.2452 29.4887 39.2452C29.4887 39.2452 29.4817 39.2452 29.4747 39.2452C29.4608 39.2452 29.4399 39.2452 29.426 39.2452C29.419 39.2452 29.412 39.2452 29.4051 39.2452C29.3772 39.2312 29.3493 39.2103 29.3215 39.1964C29.3075 39.1964 29.3006 39.1825 29.2866 39.1755C29.2727 39.1616 29.2657 39.1546 29.2518 39.1407C29.2518 39.1407 29.2518 39.1337 29.2379 39.1267C29.1055 39.0013 28.9523 38.9038 28.7781 38.8411C28.7572 38.8411 28.7363 38.8272 28.7224 38.8202C28.7084 38.8132 28.6945 38.8063 28.6806 38.7993C28.3113 38.6112 27.9491 38.3883 27.5311 38.3395C27.5102 38.3395 27.4893 38.3326 27.4684 38.3256C27.3361 38.2977 27.1967 38.3047 27.0644 38.3256C26.8066 38.3535 26.5628 38.458 26.3259 38.5764C26.1169 38.6948 25.901 38.8202 25.6781 38.9247C25.6502 38.9317 25.6293 38.9386 25.6014 38.9386C25.5736 38.9386 25.5527 38.9386 25.5248 38.9386C25.49 38.9317 25.4482 38.9177 25.4133 38.9038C25.1695 38.7784 24.9466 38.6112 24.7167 38.4649C24.6819 38.444 24.654 38.4231 24.6192 38.3953C24.5565 38.3326 24.4938 38.2699 24.4311 38.2002C24.4171 38.1863 24.4102 38.1654 24.3962 38.1514C24.3962 38.1514 24.3893 38.1375 24.3823 38.1375C24.3753 38.1236 24.3614 38.1096 24.3405 38.0887C24.3126 38.0469 24.2778 38.0051 24.243 37.9703C24.2012 37.9076 24.1594 37.8519 24.1106 37.7962C24.0479 37.7404 23.9852 37.6917 23.9225 37.6429C23.7693 37.5314 23.5812 37.4409 23.3931 37.42C23.2538 37.3991 23.1144 37.3782 22.9751 37.3851C22.8845 37.3851 22.794 37.406 22.7034 37.406C22.5711 37.413 22.4317 37.3921 22.2994 37.3851C22.2645 37.3851 22.2436 37.3851 22.2367 37.3851C22.2158 37.3851 22.1949 37.3782 22.174 37.3712C22.167 37.3712 22.16 37.3642 22.1531 37.3573C21.8744 37.211 21.6167 37.0229 21.3519 36.8487C21.345 36.8418 21.338 36.8348 21.331 36.8278C21.2892 36.786 21.1917 36.6606 21.1638 36.6328C21.1151 36.5631 21.0733 36.4865 21.0385 36.4099C21.0245 36.3681 21.0106 36.3263 20.9897 36.2914C20.9409 36.1521 20.9131 36.0058 20.8504 35.8665C20.5508 35.3022 20.2443 35.3161 19.9726 35.2743C19.7148 35.2116 19.7984 35.2325 19.6243 35.1489C19.3874 35.0026 19.3944 35.0235 19.1924 34.8006C19.1854 34.7867 19.1784 34.7728 19.1715 34.7658C19.1088 34.6474 19.1436 34.7101 19.0879 34.5498C18.9764 34.1945 18.8789 33.8393 18.7326 33.4979C18.7604 33.8323 18.7535 34.1736 18.7674 34.515C18.7674 34.7031 18.7744 34.8912 18.858 35.0653C19.0391 35.3997 19.3178 35.6923 19.6591 35.8665C19.8402 35.9431 19.9517 35.9849 20.0144 36.0058C20.0353 36.0476 20.0632 36.0894 20.0841 36.1312C20.0841 36.1312 20.0841 36.1382 20.0841 36.1451C20.105 36.2078 20.1119 36.2775 20.1189 36.3472C20.1189 36.3472 20.1189 36.3472 20.1189 36.3402C20.1537 36.7024 20.2791 37.0508 20.4951 37.3433C20.6135 37.5245 20.7598 37.6777 20.9479 37.7962C20.9967 37.831 21.0385 37.8658 21.0872 37.9007C21.136 37.9425 21.1778 37.9773 21.2335 38.0121C21.4355 38.1654 21.6585 38.2977 21.8953 38.3883C22.0695 38.4301 22.2506 38.451 22.4248 38.4649C22.5502 38.4719 22.6686 38.4858 22.794 38.4649C22.9403 38.451 23.0866 38.444 23.2329 38.4649C23.2538 38.4649 23.2747 38.4789 23.2956 38.4858C23.3234 38.4998 23.3443 38.5137 23.3722 38.5346C23.3931 38.5485 23.407 38.5694 23.421 38.5834C23.4697 38.6461 23.5115 38.7088 23.5603 38.7645C23.8459 39.2103 24.3335 39.4751 24.7724 39.7537C24.9954 39.8791 25.2322 39.9836 25.483 40.0045C25.6084 40.0045 25.7268 39.9836 25.8522 39.9697C26.11 39.9139 26.3468 39.7746 26.5837 39.6562C27.0017 39.4124 26.8763 39.4681 27.2037 39.3775C27.2316 39.3775 27.2385 39.3775 27.2316 39.3775C27.2385 39.3775 27.2455 39.3775 27.2594 39.3775C27.2734 39.3775 27.2873 39.3775 27.3012 39.3775C27.343 39.3845 27.3848 39.3915 27.4197 39.3984C27.4615 39.4054 27.4963 39.4124 27.5381 39.4263C27.5799 39.4333 27.6217 39.4472 27.6635 39.4611C27.6704 39.4611 27.6844 39.4681 27.6913 39.4751C27.9561 39.6074 28.2069 39.7607 28.4785 39.8582C28.4855 39.8582 28.4925 39.8721 28.4994 39.8721C28.5203 39.893 28.5412 39.9139 28.5691 39.9348C28.5691 39.9348 28.5761 39.9418 28.59 39.9557C28.7363 40.0881 28.9105 40.1856 29.0985 40.2553C29.21 40.2762 29.3284 40.311 29.4399 40.3041C29.4887 40.3041 29.5374 40.2901 29.5862 40.2832C29.635 40.2832 29.6837 40.2762 29.7325 40.2623C29.8091 40.2414 29.8788 40.1996 29.9484 40.1717C30.1017 40.109 30.255 40.0393 30.4013 39.9697C30.4082 39.9697 30.4152 39.9697 30.4222 39.9697C30.6033 40.0324 30.7774 40.1229 30.9586 40.1996C31.0352 40.2344 31.1118 40.2623 31.1954 40.2692C31.2442 40.2692 31.293 40.2692 31.3348 40.2483C31.3417 40.2483 31.3557 40.2483 31.3626 40.2483C31.3905 40.2414 31.4253 40.2205 31.4532 40.1996C31.5089 40.1717 31.5577 40.1508 31.6064 40.116C31.6204 40.102 31.6343 40.0951 31.6482 40.0881C31.7179 40.0811 31.7876 40.0602 31.8572 40.0254C32.0035 39.9488 32.1429 39.8512 32.2752 39.7537C32.4145 39.6562 32.5608 39.5656 32.6862 39.4472C32.728 39.4054 32.7768 39.3636 32.8256 39.3288C32.8534 39.3079 32.8813 39.2939 32.9092 39.273C32.937 39.2591 32.9579 39.2382 32.9858 39.2243C33.0415 39.2034 33.0972 39.1894 33.153 39.1755C33.2087 39.1755 33.2575 39.1755 33.3132 39.1825C33.3759 39.1964 33.4386 39.2173 33.5013 39.2382C33.5152 39.2382 33.5292 39.2521 33.5501 39.2521C33.5919 39.273 33.6476 39.2939 33.6964 39.3148C34.0586 39.5029 34.4766 39.5935 34.8876 39.5169C35.1872 39.4402 35.431 39.2312 35.6609 39.0362C35.9674 38.7854 36.246 38.5137 36.5247 38.235C36.8034 37.9703 36.7755 37.9912 36.8939 37.9216C36.9636 37.8798 37.0333 37.8449 37.1099 37.8101H37.1238C37.2144 37.7683 37.3119 37.7404 37.4094 37.7195C37.5488 37.7544 37.6811 37.8101 37.8205 37.8589C37.9598 37.8937 38.0991 37.9216 38.2384 37.9285C38.3847 37.9285 38.5241 37.9007 38.6634 37.8449C38.7609 37.8171 38.8515 37.7613 38.949 37.7265C38.9072 37.7404 38.8654 37.7613 38.8236 37.7753C38.8793 37.7544 38.9281 37.7335 38.9838 37.7126C39.3113 37.5523 39.569 37.2737 39.7083 36.9463C39.8686 36.6606 39.9661 36.3402 40.0845 36.0337C40.0915 36.0128 40.1054 35.9988 40.1124 35.9779C40.1263 35.9501 40.1403 35.9292 40.1612 35.9013C40.1612 35.9013 40.1612 35.9013 40.1681 35.8943C40.2239 35.8804 40.2726 35.8665 40.3214 35.8456C40.7115 35.7341 41.0807 35.4973 41.3245 35.1768C41.5823 34.7658 41.6938 34.2712 41.7216 33.7905C41.7356 33.4979 41.6938 33.2123 41.6798 32.9197C41.6798 32.8849 41.6729 32.85 41.6729 32.8152C41.6729 32.8152 41.6729 32.8082 41.6729 32.8013C41.6729 32.7873 41.6868 32.7804 41.6938 32.7664C41.8609 32.6132 41.9794 32.4112 42.0699 32.2022C42.2232 31.8817 42.3556 31.5473 42.3974 31.192C42.4183 30.9134 42.3974 30.6278 42.3277 30.3561C42.3277 30.3421 42.3207 30.3352 42.3138 30.3212C42.3207 30.3212 42.3347 30.3212 42.3416 30.3212C42.474 30.3212 42.6063 30.3352 42.7387 30.3561C42.9268 30.3909 43.1288 30.4048 43.31 30.3282C43.4911 30.2376 43.5468 30.0217 43.6234 29.8475C43.7001 29.6246 43.7697 29.4017 43.8185 29.1718C43.8185 29.1509 43.8255 29.137 43.8324 29.123C43.9369 29.1091 44.0414 29.0812 44.132 29.0255C44.2922 28.921 44.4037 28.7677 44.5012 28.6075C44.5709 28.4891 44.6475 28.3776 44.6823 28.2453C44.7729 27.7924 44.6754 27.3396 44.5918 26.8938C44.5918 26.852 44.5918 26.8102 44.5918 26.7754C44.5918 26.7545 44.5987 26.7266 44.6057 26.7057L44.5918 26.6987Z" fill="#040000"/>
        <path d="M30.0738 28.4961C30.025 28.4752 29.9971 28.4125 30.0459 28.3707C30.1086 28.315 30.1992 28.301 30.2758 28.2801C30.3733 28.2592 30.4709 28.2314 30.5684 28.2035C30.7565 28.1547 30.9446 28.106 31.1396 28.0572C31.1466 27.27 30.7774 26.6152 30.2131 26.5107C29.5513 26.3922 28.8686 27.0889 28.6944 28.0642C28.5203 29.0395 28.9104 29.9312 29.5792 30.0496C30.1574 30.1541 30.7495 29.6386 31.0073 28.8583C30.7077 28.7051 30.3942 28.6006 30.0807 28.4891L30.0738 28.4961Z" fill="#040000"/>
        <path d="M23.6438 33.0033C23.4 33.0729 23.2189 33.2471 23.0308 33.4073C22.9681 33.4491 22.6337 33.6233 22.369 33.6512C22.2227 33.6721 21.9092 33.6233 21.7141 33.5676C22.0206 33.8462 22.4247 34.0343 22.8427 33.9646C22.982 33.9437 23.1213 33.9368 23.2537 33.881C23.393 33.8253 23.5184 33.7417 23.6508 33.6651C23.6508 33.6651 23.6577 33.6651 23.6647 33.6651C23.6856 33.6581 23.7065 33.6512 23.7274 33.6442C23.7274 33.679 23.7274 33.7138 23.7274 33.7487C23.7135 33.9925 23.6577 34.1736 23.5184 34.4384C23.4278 34.6334 23.3234 34.7936 23.2328 34.8912C23.1562 34.9817 23.0726 35.0723 22.9611 35.135C22.9123 35.1629 22.8636 35.1838 22.8078 35.2047C22.8287 35.2047 22.8427 35.2047 22.8636 35.2047C23.4975 35.2395 24.1941 34.4732 24.3126 33.888C24.4449 33.3655 24.2708 32.8849 23.6508 33.0102L23.6438 33.0033Z" fill="#040000"/>
        <path d="M42.3973 24.9223C42.3973 24.9223 42.3903 24.8874 42.3833 24.8735C42.3833 24.8317 42.3833 24.7202 42.3903 24.6784C42.4321 24.2396 42.4809 23.529 41.9654 23.3618C41.8121 23.2991 41.6449 23.3409 41.4847 23.3757C41.22 23.4384 40.9552 23.529 40.6905 23.5847C41.0458 23.6892 41.5265 23.6823 41.7424 23.7449C41.7564 23.7519 41.7703 23.7589 41.7842 23.7728C41.7842 23.7728 41.7982 23.7867 41.8051 23.7937C41.8121 23.8216 41.826 23.8634 41.833 23.8982C41.8469 24.2117 41.7633 24.5182 41.7703 24.8247C41.8051 25.4796 42.3485 25.4796 42.6132 25.5632C42.669 25.5632 42.8501 25.8906 42.8571 26.1692C42.871 26.2737 42.8849 26.3991 42.8153 26.4897C42.9058 26.4479 42.9546 26.3504 42.9894 26.2598C43.0312 26.1344 43.066 26.0021 43.08 25.8697C43.1148 25.0825 42.662 25.1243 42.4042 24.9223H42.3973Z" fill="#040000"/>
        <path d="M25.3644 21.7805C25.2599 21.467 24.9325 21.467 24.6469 21.5785C24.6399 21.5785 24.633 21.5785 24.626 21.5785C24.3613 21.6133 24.1871 21.8502 24.1383 22.1009C24.1244 22.1776 24.1174 22.2542 24.1105 22.3378C24.1105 22.3378 24.0965 22.3378 24.0896 22.3378C23.9015 22.3726 23.9712 22.3796 23.79 22.3657C23.6577 22.3587 23.5183 22.3378 23.386 22.3448C23.2676 22.3517 23.1561 22.4005 23.0446 22.4493C22.7381 22.5956 22.5988 22.9508 22.6336 23.2783C22.6475 23.4176 22.6684 23.5639 22.766 23.6684C22.8008 23.7241 22.766 23.6335 22.766 23.6057C22.759 23.5151 22.7799 23.4176 22.8078 23.334C22.8426 23.2086 22.8774 23.132 22.9541 23.0205C23.0864 22.8533 23.1004 22.8672 23.3302 22.7976C23.379 22.7836 23.4208 22.7976 23.595 22.7976C23.7831 22.7976 23.9781 22.7976 24.1453 22.6931C24.2498 22.6374 24.3682 22.6025 24.4379 22.498C24.5076 22.3796 24.5424 22.2472 24.5633 22.1079C24.5772 22.094 24.5912 22.087 24.6051 22.0731C24.6121 22.0731 24.626 22.0731 24.633 22.0731C24.6957 22.0731 24.7584 22.0661 24.8211 22.0731C24.835 22.0731 24.8489 22.0731 24.8628 22.0731C24.8698 22.0731 24.8837 22.0731 24.8977 22.0731C24.8977 22.0731 24.9046 22.0731 24.9255 22.0731C25.0091 22.094 25.0858 22.1218 25.1694 22.1009C25.3087 22.0661 25.3923 21.9128 25.3505 21.7735L25.3644 21.7805Z" fill="#040000"/>
        <path d="M25.3854 27.9039C25.3436 27.89 25.3227 27.8273 25.3575 27.7925C25.4063 27.7437 25.4829 27.7228 25.5456 27.7019C25.6292 27.681 25.7058 27.6531 25.7825 27.6253C25.9357 27.5765 26.089 27.5277 26.2422 27.472C26.2144 26.7614 25.887 26.1902 25.4202 26.1205C24.8699 26.0369 24.3335 26.6918 24.229 27.5765C24.1245 28.4612 24.4867 29.2484 25.0371 29.3251C25.5177 29.3947 25.9845 28.9071 26.1656 28.1965C25.9148 28.0711 25.6501 27.9875 25.3854 27.897V27.9039Z" fill="#040000"/>
        <path d="M18.8928 49.7156L15.5559 48.3851L14.929 49.0678C14.8036 49.2001 14.713 49.2141 14.5249 49.1374L11.1114 47.772C11.0208 47.7372 11.0139 47.6606 11.0278 47.6118C11.0487 47.563 11.1044 47.5143 11.1671 47.4516L18.7117 40.0533L22.3621 41.5093L22.7313 52.0703C22.7313 52.1469 22.7313 52.2375 22.7174 52.2793C22.6965 52.328 22.6408 52.3768 22.5502 52.335L19.1367 50.9696C18.9486 50.893 18.8928 50.8163 18.8928 50.6422L18.9068 49.7156H18.8928ZM17.5483 46.2185L18.9207 46.7689V46.525C18.9416 45.8145 19.1018 44.5187 19.1018 44.5187L18.9764 44.47C18.9764 44.47 18.1962 45.5219 17.7225 46.0444L17.5414 46.2255L17.5483 46.2185Z" fill="#040000"/>
        <path d="M32.8882 42.2617C32.8882 42.1572 32.9857 42.0457 33.0832 42.0457L36.4759 41.9691C36.5734 41.9691 36.6779 42.0736 36.6779 42.1781L36.7963 47.2705C36.873 50.698 34.9224 52.7949 31.4949 52.8715C28.0814 52.9481 26.0263 50.9418 25.9497 47.5074L25.8313 42.415C25.8313 42.3105 25.9288 42.199 26.0263 42.199L29.4189 42.1224C29.5165 42.1224 29.621 42.2269 29.621 42.3314L29.7324 47.3332C29.7673 48.7822 30.4012 49.5276 31.4113 49.5067C32.4423 49.4858 33.0275 48.7126 32.9927 47.2636L32.8812 42.2617H32.8882Z" fill="#040000"/>
        <path d="M46.8072 45.8772C47.1068 45.2224 47.267 44.679 47.267 44.679L47.3297 44.6581L48.7369 48.4408C48.7717 48.5314 48.9041 48.5941 48.9946 48.5523L52.2131 47.3123C52.3106 47.2774 52.3664 47.1451 52.3315 47.0545L48.9877 38.047C48.9528 37.9564 48.8205 37.8937 48.7299 37.9355L45.8876 39.0293L43.8674 43.4181C43.5887 44.0241 43.4564 44.5048 43.4564 44.5048L43.4076 44.5257L42.0004 40.743C41.9656 40.6524 41.8332 40.5897 41.7426 40.6315L38.5242 41.8715C38.4267 41.9064 38.3709 42.0387 38.4058 42.1293L41.7496 51.1368C41.7844 51.2274 41.9168 51.2901 42.0074 51.2483L44.8497 50.1546L46.8002 45.8772H46.8072Z" fill="#040000"/>
        <path d="M8.33169 31.0318C8.28293 31.3941 8.26203 32.0559 8.26203 32.3275C8.26203 33.3168 8.32473 33.7069 8.67305 33.7069C9.02136 33.7069 9.04923 32.9336 9.04923 32.5853C9.04923 31.812 8.75664 31.3035 8.33866 31.0318H8.33169Z" fill="#040000"/>
        <path d="M6.61801 28.2243C2.96763 28.2243 -4.57764e-05 30.1122 -4.57764e-05 32.432C-4.57764e-05 34.7518 2.96066 36.6397 6.61801 36.6397C10.2754 36.6397 13.2361 34.7518 13.2361 32.432C13.2361 30.1122 10.2754 28.2243 6.61801 28.2243ZM5.30136 34.8284C4.81372 34.8284 3.81753 34.7588 3.30202 34.6821C3.15572 34.4731 3.12786 34.3129 3.12786 34.1318C3.12786 33.672 3.35775 33.4073 3.75483 33.3098C4.68832 32.3066 4.95305 31.8747 4.95305 31.4358C4.95305 31.185 4.73709 31.0457 4.37484 30.983C4.33304 31.2268 4.31214 31.4358 4.28427 31.8956C4.25641 31.9235 4.03348 31.9583 3.91506 31.9583C3.5528 31.9583 3.23235 31.6657 3.23235 31.1432C3.23235 30.3839 3.65033 29.9868 4.29124 29.9589C4.55596 29.8614 4.73709 29.8126 5.00878 29.8126C5.9771 29.8126 6.46475 30.558 6.46475 31.3243C6.46475 32.0906 5.9562 32.6271 4.93911 33.5257C5.05057 33.5327 5.17597 33.5536 5.25957 33.5536C5.51036 33.5536 5.68451 33.4909 5.9771 33.2471C6.33239 33.3376 6.52048 33.6581 6.52048 33.9437C6.52048 34.4871 6.0607 34.8284 5.30833 34.8284H5.30136ZM8.49196 34.8633C7.44004 34.8633 6.75734 34.3129 6.75734 32.634C6.75734 31.4497 7.07082 30.8367 7.60027 30.4953C7.80926 30.0216 8.18544 29.7708 8.65219 29.7708C9.80861 29.7708 10.5331 30.6277 10.5331 31.9792C10.5331 33.6302 9.9549 34.8563 8.49893 34.8563L8.49196 34.8633Z" fill="#040000"/>
        <path d="M57.3819 28.2034C53.7246 28.2034 50.7639 30.0983 50.7639 32.446C50.7639 34.7936 53.7246 36.6885 57.3819 36.6885C61.0393 36.6885 64 34.7936 64 32.446C64 30.0983 61.0393 28.2034 57.3819 28.2034ZM56.0165 35.0653C55.5498 35.0653 54.6024 34.9887 54.1147 34.912C53.9754 34.6961 53.9545 34.5219 53.9545 34.3338C53.9545 33.8532 54.1704 33.5745 54.5466 33.47C55.4314 32.4181 55.6821 31.9722 55.6821 31.5125C55.6821 31.2477 55.4732 31.1084 55.1318 31.0387C55.09 31.2965 55.0691 31.5125 55.0482 31.9931C55.0203 32.021 54.8044 32.0628 54.6929 32.0628C54.3516 32.0628 54.045 31.7632 54.045 31.2129C54.045 30.4187 54.4421 30.0008 55.0552 29.9729C55.306 29.8684 55.4801 29.8196 55.7379 29.8196C56.6574 29.8196 57.1242 30.5929 57.1242 31.401C57.1242 32.2091 56.6435 32.7664 55.6752 33.6999C55.7797 33.7069 55.8981 33.7278 55.9747 33.7278C56.2186 33.7278 56.3788 33.6581 56.6574 33.4073C56.9918 33.5048 57.1729 33.8323 57.1729 34.1388C57.1729 34.7031 56.7341 35.0653 56.0165 35.0653ZM59.0748 35.1837C58.2597 35.1837 57.2565 34.2502 57.2565 33.9437C57.2565 33.7556 57.6258 33.3516 57.7581 33.3516C57.8905 33.3516 58.3712 33.7696 58.7752 33.7696C59.1793 33.7696 59.6181 33.4979 59.6181 33.2332C59.6181 33.0242 59.5345 32.9684 59.3674 32.9684C59.2002 32.9684 58.7613 33.1496 58.2806 33.1496C57.7999 33.1496 57.5422 32.648 57.5422 32.3833C57.5422 32.1185 57.6536 31.9722 57.9114 31.9722C58.9842 31.9722 59.7575 31.4776 59.7575 30.9551C59.7575 30.788 59.6669 30.6904 59.5276 30.6904C59.0678 30.6904 58.7195 31.6518 58.3363 31.6518C57.9532 31.6518 57.4028 30.9551 57.4028 30.7601C57.4028 30.5232 58.2597 29.7291 59.033 29.7291C59.8062 29.7291 60.8791 30.5372 60.8791 31.2408C60.8791 31.9444 60.3914 32.4251 60.3914 32.4251C60.3914 32.4251 61.0532 32.7316 61.0532 33.6442C61.0532 34.5568 59.8829 35.1768 59.0608 35.1768L59.0748 35.1837Z" fill="#040000"/>
    </g>
    <defs>
        <clipPath id="clip0_733_274">
            <rect width="64" height="64" fill="white" transform="translate(0 0.399902)"/>
        </clipPath>
    </defs>
</svg>
