<svg width="64" height="65" viewBox="0 0 64 65" fill="none" xmlns="http://www.w3.org/2000/svg">
    <g clip-path="url(#clip0_733_247)">
        <g clip-path="url(#clip1_733_247)">
            <path d="M36.1366 9.57508L32.3335 13.3781L28.5304 17.1812L24.7274 20.9843L20.9243 24.7873L17.1212 28.5904L13.3182 32.3935L17.1212 36.1965L20.9243 32.3935L24.7274 28.5904L28.5304 24.7873L32.3335 20.9843L36.1366 17.1812L38.9887 14.329C39.5137 13.8041 40.3651 13.8041 40.8906 14.329L43.7427 17.1812L47.5458 20.9843L51.3489 24.7873L55.1519 28.5904L58.0041 31.4426C58.529 31.9675 58.529 32.8189 58.0041 33.3444L55.1519 36.1965L51.3489 39.9996L47.5458 43.8027L43.7427 47.6058L39.9397 51.4088L36.1366 55.2119C38.2368 57.3121 41.6424 57.3121 43.7427 55.2119L47.5458 51.4088L51.3489 47.6058L55.1519 43.8027L58.955 39.9996L62.7581 36.1965C64.8583 34.0963 64.8583 30.6907 62.7581 28.5904L58.955 24.7873L55.1519 20.9843L51.3489 17.1812L47.5458 13.3781L43.7427 9.57508C41.6424 7.47481 38.2368 7.47481 36.1366 9.57508Z" fill="#00A9CE"/>
            <path d="M39.9397 43.8032L43.7427 40.0001L47.5458 36.197L51.3489 32.394L47.5458 28.5909L43.7427 32.394L39.9397 36.197L36.1366 40.0001L32.3335 43.8032L28.5305 47.6062L25.6783 50.4584C25.1534 50.9833 24.302 50.9833 23.7765 50.4584L20.9243 47.6062L24.7274 43.8032L28.5305 40.0001L32.3335 36.197L36.1366 32.394L39.9397 28.5909L43.7427 24.7878L39.9397 20.9848L36.1366 24.7878L32.3335 28.5909L28.5305 32.394L24.7274 36.197L20.9243 40.0001L17.1213 43.8032L13.3182 40.0001L9.51512 36.197L6.66296 33.3449C6.13803 32.8199 6.13803 31.9685 6.66296 31.4431L9.51512 28.5909L13.3182 24.7878L17.1213 20.9848L20.9243 17.1817L24.7274 13.3786L28.5305 9.57557C26.4302 7.4753 23.0246 7.4753 20.9243 9.57557L17.1213 13.3786L13.3182 17.1817L9.51512 20.9848L5.71206 24.7878L1.90845 28.5904C-0.191814 30.6906 -0.191814 34.0962 1.90845 36.1965L5.71152 39.9996L9.51459 43.8026L13.3177 47.6057L17.1207 51.4088L20.9238 55.2118C23.0241 57.3121 26.4297 57.3121 28.5299 55.2118L32.333 51.4088L36.1361 47.6057L39.9391 43.8026L39.9397 43.8032Z" fill="#425563"/>
        </g>
    </g>
    <defs>
        <clipPath id="clip0_733_247">
            <rect width="64" height="64" fill="white" transform="translate(0 0.399902)"/>
        </clipPath>
        <clipPath id="clip1_733_247">
            <rect width="64" height="64" fill="white" transform="translate(0 0.399902)"/>
        </clipPath>
    </defs>
</svg>
