<svg width="20" height="21" viewBox="0 0 20 21" fill="none" xmlns="http://www.w3.org/2000/svg">
    <g clip-path="url(#clip0_575_1370)">
        <path d="M7.5006 10.6001C7.5006 9.21944 8.61959 8.0999 10.0003 8.0999C11.381 8.0999 12.5006 9.21944 12.5006 10.6001C12.5006 11.9808 11.381 13.1003 10.0003 13.1003C8.61959 13.1003 7.5006 11.9808 7.5006 10.6001ZM6.14899 10.6001C6.14899 12.7271 7.87322 14.4513 10.0003 14.4513C12.1274 14.4513 13.8516 12.7271 13.8516 10.6001C13.8516 8.4731 12.1274 6.74894 10.0003 6.74894C7.87322 6.74894 6.14899 8.4731 6.14899 10.6001ZM13.104 6.59624C13.1038 7.09329 13.5066 7.4964 14.0037 7.4966C14.5008 7.4968 14.9039 7.09401 14.9041 6.59696C14.9043 6.0999 14.5015 5.6968 14.0044 5.6966C13.5076 5.69683 13.1045 6.09942 13.104 6.59624ZM6.97018 16.7049C6.23893 16.6716 5.84147 16.5498 5.57734 16.4469C5.22717 16.3106 4.97732 16.1482 4.71463 15.8859C4.45194 15.6236 4.28933 15.374 4.15361 15.0238C4.05064 14.7598 3.92884 14.3623 3.8956 13.6311C3.85923 12.8405 3.85197 12.603 3.85197 10.6002C3.85197 8.5973 3.85983 8.36048 3.8956 7.56926C3.9289 6.83804 4.0516 6.44126 4.15361 6.17648C4.28993 5.82632 4.4523 5.57648 4.71463 5.3138C4.97696 5.05112 5.22657 4.88852 5.57734 4.7528C5.84135 4.64984 6.23893 4.52804 6.97018 4.4948C7.76077 4.45844 7.99826 4.45118 10.0003 4.45118C12.0023 4.45118 12.2401 4.45904 13.0313 4.4948C13.7626 4.5281 14.1594 4.6508 14.4242 4.7528C14.7743 4.88852 15.0242 5.05148 15.2869 5.3138C15.5496 5.57612 15.7116 5.82632 15.8479 6.17648C15.9509 6.44048 16.0727 6.83804 16.1059 7.56926C16.1423 8.36048 16.1495 8.5973 16.1495 10.6002C16.1495 12.603 16.1423 12.8398 16.1059 13.6311C16.0726 14.3623 15.9502 14.7597 15.8479 15.0238C15.7116 15.374 15.5492 15.6238 15.2869 15.8859C15.0245 16.148 14.7743 16.3106 14.4242 16.4469C14.1601 16.5499 13.7626 16.6717 13.0313 16.7049C12.2407 16.7413 12.0032 16.7485 10.0003 16.7485C7.99736 16.7485 7.76053 16.7413 6.97018 16.7049ZM6.90808 3.14552C6.10962 3.18188 5.56402 3.30848 5.08754 3.49388C4.59408 3.68534 4.17635 3.9422 3.75891 4.35896C3.34147 4.77572 3.08526 5.1941 2.8938 5.68754C2.70839 6.1643 2.58178 6.70958 2.54542 7.508C2.50846 8.30768 2.5 8.56334 2.5 10.6001C2.5 12.6369 2.50846 12.8925 2.54542 13.6922C2.58178 14.4907 2.70839 15.0359 2.8938 15.5127C3.08526 16.0058 3.34153 16.4247 3.75891 16.8412C4.17629 17.2578 4.59408 17.5143 5.08754 17.7063C5.56492 17.8917 6.10962 18.0183 6.90808 18.0547C7.70821 18.091 7.96346 18.1001 10.0003 18.1001C12.0371 18.1001 12.2928 18.0916 13.0925 18.0547C13.891 18.0183 14.4363 17.8917 14.9131 17.7063C15.4062 17.5143 15.8243 17.258 16.2417 16.8412C16.6591 16.4245 16.9148 16.0058 17.1068 15.5127C17.2922 15.0359 17.4194 14.4906 17.4552 13.6922C17.4915 12.8919 17.5 12.6369 17.5 10.6001C17.5 8.56334 17.4915 8.30768 17.4552 7.508C17.4188 6.70952 17.2922 6.164 17.1068 5.68754C16.9148 5.1944 16.6585 4.77638 16.2417 4.35896C15.8249 3.94154 15.4062 3.68534 14.9137 3.49388C14.4363 3.30848 13.891 3.18128 13.0931 3.14552C12.2934 3.10916 12.0377 3.1001 10.0009 3.1001C7.96406 3.1001 7.70821 3.10856 6.90808 3.14552Z" fill="#332018" fill-opacity="0.65"/>
    </g>
    <defs>
        <clipPath id="clip0_575_1370">
            <rect width="15" height="15" fill="white" transform="translate(2.5 3.1001)"/>
        </clipPath>
    </defs>
</svg>