<svg width="64" height="65" viewBox="0 0 64 65" fill="none" xmlns="http://www.w3.org/2000/svg">
    <mask id="mask0_733_841" style="mask-type:luminance" maskUnits="userSpaceOnUse" x="0" y="8" width="64" height="48">
        <path d="M64 8.98746H0V55.8124H64V8.98746Z" fill="white"/>
    </mask>
    <g mask="url(#mask0_733_841)">
        <path d="M31.2587 55.7436C30.6549 55.7436 29.9534 55.637 29.1887 55.326C26.1333 54.0858 23.6203 50.2241 21.7076 43.8404C14.1306 42.9473 8.4266 40.2336 4.7005 35.7319C-1.68865 28.0103 0.258467 18.0071 0.345247 17.5858C0.356094 17.5316 0.370558 17.4774 0.386829 17.4231C1.43361 14.0459 3.27406 11.8078 5.85937 10.77C10.3466 8.97115 15.2768 11.6649 15.4829 11.7806C15.5028 11.7915 15.5226 11.8023 15.5425 11.815C31.7794 21.7278 40.5207 22.8089 43.9069 22.7041C42.965 19.0521 43.0065 13.415 47.7613 9.38697C48.3109 8.92053 49.0956 8.85544 49.7139 9.22606C50.3322 9.59488 50.6486 10.3162 50.5003 11.0213C50.4732 11.1623 49.8332 14.7998 53.0043 19.8385C54.0944 20.408 57.8838 22.1599 62.0059 21.462C62.626 21.3554 63.2533 21.6067 63.6312 22.1075C64.009 22.6083 64.0777 23.2808 63.8083 23.8485C62.3783 26.855 57.7193 31.6478 49.9561 29.5416C48.3869 32.3674 43.99 38.8469 34.8764 43.1497C35.8581 45.2993 37.1977 49.0526 36.2576 51.9958C35.7858 53.4693 34.7914 54.5992 33.3758 55.2645C33.092 55.411 32.3254 55.7455 31.2587 55.7455V55.7436ZM25.3306 44.1224C27.2596 49.9529 29.261 51.6614 30.3512 52.1567C31.1304 52.5111 31.6619 52.3393 31.7993 52.2833C31.8517 52.2471 31.8427 52.2598 31.9222 52.2236C32.5098 51.9525 32.8569 51.5656 33.0468 50.9708C33.788 48.6548 31.8481 44.4569 31.1105 43.1678C30.87 42.7484 30.8212 42.244 30.9785 41.7866C31.134 41.3292 31.4793 40.9604 31.9259 40.7742C43.5525 35.9362 47.5082 26.9364 47.548 26.846C47.9006 26.0216 48.837 25.613 49.6777 25.9203C52.9934 27.1299 55.8445 26.9274 58.1514 25.3183C58.3268 25.1954 58.4931 25.0688 58.6504 24.9405C54.3403 24.5789 51.1168 22.6571 50.9433 22.5522C50.7281 22.422 50.5455 22.2449 50.4081 22.0351C48.7467 19.5023 47.8879 17.1899 47.4612 15.3006C45.854 19.175 47.6041 23.1777 47.7017 23.3947C47.8915 23.8177 47.9006 24.3041 47.7234 24.7344C47.5462 25.1646 47.2009 25.5027 46.767 25.6672C45.8215 26.027 36.8651 28.7732 13.8268 14.7185C13.5249 14.5594 9.97236 12.7479 7.10321 13.9085C5.53394 14.5431 4.36965 16.031 3.63745 18.3325C3.4892 19.1823 2.2092 27.4607 7.32197 33.6112C10.6304 37.5922 15.924 39.9335 23.096 40.6006C23.1448 40.6024 23.1955 40.6078 23.2443 40.6132C24.8497 40.7579 26.5491 40.8175 28.3408 40.794C28.348 40.794 28.3552 40.794 28.3643 40.794C29.2845 40.794 30.0366 41.5335 30.0493 42.4573C30.0619 43.3884 29.317 44.1531 28.386 44.1658C27.341 44.1803 26.325 44.1658 25.336 44.126L25.3306 44.1224Z" fill="url(#paint0_linear_733_841)"/>
        <path d="M11.9286 51.8728C11.3971 51.8728 11.0066 51.7969 10.8529 51.7607C9.2981 51.4244 8.12296 50.5331 7.45223 49.1808C5.51595 45.2775 8.57855 38.5449 8.93471 37.7892C9.33064 36.9467 10.3358 36.5851 11.1783 36.9829C12.0208 37.3806 12.3806 38.384 11.9847 39.2265C10.8312 41.6834 9.60183 45.9302 10.4732 47.6839C10.6251 47.9876 10.8728 48.3185 11.5779 48.4685C11.6014 48.4739 11.6267 48.4794 11.6502 48.4848C11.6502 48.4848 12.4891 48.6493 13.2321 48.0256C13.9047 47.4597 15.0093 45.8181 14.8448 41.1772C14.8122 40.2461 15.539 39.4651 16.4701 39.4326C17.4012 39.4036 18.1821 40.1268 18.2147 41.0579C18.381 45.7621 17.403 49.0018 15.304 50.6868C14.0909 51.6613 12.8163 51.8746 11.9304 51.8746L11.9286 51.8728Z" fill="url(#paint1_linear_733_841)"/>
        <path d="M25.5003 43.6034C24.92 43.6034 24.3541 43.3033 24.0414 42.7646C17.9885 32.3438 1.19844 24.6421 1.0285 24.5643C0.180591 24.1793 -0.195454 23.1813 0.189631 22.3334C0.572908 21.4855 1.57268 21.1094 2.42059 21.4927C3.14918 21.8236 20.3587 29.7097 26.9575 41.0706C27.4258 41.8751 27.151 42.9074 26.3465 43.3756C26.0807 43.5311 25.7878 43.6034 25.5022 43.6034H25.5003Z" fill="url(#paint2_linear_733_841)"/>
        <path d="M18.1514 25.7794C19.1128 25.7794 19.8924 24.9999 19.8924 24.0384C19.8924 23.0769 19.1128 22.2974 18.1514 22.2974C17.1898 22.2974 16.4103 23.0769 16.4103 24.0384C16.4103 24.9999 17.1898 25.7794 18.1514 25.7794Z" fill="url(#paint3_linear_733_841)"/>
    </g>
    <defs>
        <linearGradient id="paint0_linear_733_841" x1="31.9854" y1="8.98691" x2="31.9854" y2="55.7455" gradientUnits="userSpaceOnUse">
            <stop stop-color="#59DD56"/>
            <stop offset="1" stop-color="#569CDD"/>
        </linearGradient>
        <linearGradient id="paint1_linear_733_841" x1="12.5241" y1="36.8213" x2="12.5241" y2="51.8746" gradientUnits="userSpaceOnUse">
            <stop stop-color="#59DD56"/>
            <stop offset="1" stop-color="#569CDD"/>
        </linearGradient>
        <linearGradient id="paint2_linear_733_841" x1="13.6122" y1="21.3427" x2="13.6122" y2="43.6034" gradientUnits="userSpaceOnUse">
            <stop stop-color="#59DD56"/>
            <stop offset="1" stop-color="#569CDD"/>
        </linearGradient>
        <linearGradient id="paint3_linear_733_841" x1="18.1514" y1="22.2974" x2="18.1514" y2="25.7794" gradientUnits="userSpaceOnUse">
            <stop stop-color="#59DD56"/>
            <stop offset="1" stop-color="#569CDD"/>
        </linearGradient>
    </defs>
</svg>
