<svg width="64" height="65" viewBox="0 0 64 65" fill="none" xmlns="http://www.w3.org/2000/svg">
    <g clip-path="url(#clip0_733_524)">
        <path d="M1.46826 3.61041L2.1099 8.88403H12.9194L17.6849 3.61041H1.46826Z" fill="#8DBDD1"/>
        <path d="M18.6685 3.61041L1 22.5645L3.88035 27.4822L20.3194 9.28681L18.6685 3.61041Z" fill="#8DBDD1"/>
        <path d="M6.02295 26.1475L15.7178 19.9302L13.7507 17.4713L6.02295 26.1475Z" fill="#8DBDD1"/>
        <path d="M14.3127 16.839L23.0592 28.817V20.6326L19.7222 15.9608L15.7178 15.5463L14.3127 16.839Z" fill="#8DBDD1"/>
        <path d="M23.6213 1.52394V9.6381L29.0659 13.221V1.34831L29.6982 0.399902H24.3941L23.6213 1.52394Z" fill="#8DBDD1"/>
        <path d="M23.6213 18.4899V29.5546L29.101 27.4822V15.2934L23.6213 18.4899Z" fill="#8DBDD1"/>
        <path d="M29.6982 8.54919V13.0102H34.9672L32.0166 8.54919H29.6982Z" fill="#8DBDD1"/>
        <path d="M34.9672 13.5371H29.6982V14.8017H34.9672V13.5371Z" fill="#8DBDD1"/>
        <path d="M29.6982 15.2934V19.8949H32.0166L34.9672 15.2934H29.6982Z" fill="#8DBDD1"/>
        <path d="M36.5127 6.61724H56.0429L50.8442 1.03217H41.9221L36.5127 6.61724Z" fill="#8DBDD1"/>
        <path d="M42.2734 7.28467H36.5127V13.5371H42.2734V7.28467Z" fill="#8DBDD1"/>
        <path d="M56.0427 7.28467H50.3523V13.5371H56.0427V7.28467Z" fill="#8DBDD1"/>
        <path d="M50.8793 19.7544H41.9924L36.7585 14.1694H56.0429L50.8793 19.7544Z" fill="#8DBDD1"/>
        <path d="M35.7048 20.6326L36.3722 26.2528H62.0144L56.7103 20.6326H35.7048Z" fill="#8DBDD1"/>
        <path d="M57.3074 1.52393V20.4921L62.7871 26.1123V1.52393C63.0306 1.33659 63.15 1.22887 63.2156 1.16565C63.2273 1.15394 63.3491 1.03217 63.3491 1.03217H57.5181C57.5064 1.04856 57.4947 1.06729 57.483 1.08603C57.3893 1.2359 57.3378 1.38811 57.3074 1.52393Z" fill="#8DBDD1"/>
        <path d="M57.3074 26.7446V30.6436L62.3655 26.7446H57.3074Z" fill="#8DBDD1"/>
        <path d="M5.67188 30.7841C5.57821 30.8777 5.47518 30.9948 5.37214 31.1423C5.25037 31.3203 5.16607 31.4889 5.10986 31.6271V38.5118H10.5193V31.6973C10.5661 31.5592 10.6364 31.3976 10.7418 31.2266C10.7956 31.1377 10.8518 31.0604 10.9057 30.9948L5.67188 30.7841Z" fill="#8DBDD1"/>
        <path d="M5.46094 39.2144L10.6596 44.5887H27.8363V39.2144H5.46094Z" fill="#8DBDD1"/>
        <path d="M3.88037 45.502H23.6213V45.0454L10.449 45.2749L9.04393 43.7106L3.88037 45.502Z" fill="#8DBDD1"/>
        <path d="M31.8337 45.9938H1.17554V51.4383H31.8337V45.9938Z" fill="#8DBDD1"/>
        <path d="M19.1252 51.8599V54.1079L27.8365 51.8599H19.1252Z" fill="#8DBDD1"/>
        <path d="M15.5774 52.0355L13.0483 54.108V62.8544H18.7037V52.0355H15.5774Z" fill="#8DBDD1"/>
        <path d="M48.9823 34.2264H36.0208V39.8115H48.9823V34.2264Z" fill="#8DBDD1"/>
        <path d="M49.4741 33.9454V43.0431H54.8836V39.4251L49.4741 33.9454Z" fill="#8DBDD1"/>
        <path d="M40.4819 43.5701V49.1903H50.0011L55.3403 43.5701H40.4819Z" fill="#8DBDD1"/>
        <path d="M39.9902 43.5701V58.4285L34.7915 53.1595V48.5229L39.9902 43.5701Z" fill="#8DBDD1"/>
        <path d="M40.4819 53.3702V58.6134C47.6945 58.686 54.9071 58.7586 62.1197 58.8335L56.7243 53.3726H40.4819V53.3702Z" fill="#8DBDD1"/>
        <path d="M57.6234 32.6107C57.4712 32.7981 57.319 32.9854 57.1667 33.1727V53.1244C58.9676 54.9721 60.7684 56.8174 62.5692 58.665C62.6301 50.1855 62.6909 41.7061 62.7518 33.2266C62.8572 33.051 62.9626 32.8753 63.068 32.6997L57.6234 32.6107Z" fill="#8DBDD1"/>
        <path d="M57.0967 59.2363V64.3999L62.752 59.9389V59.2363H57.0967Z" fill="#8DBDD1"/>
    </g>
    <defs>
        <clipPath id="clip0_733_524">
            <rect width="64" height="64" fill="white" transform="translate(0 0.399902)"/>
        </clipPath>
    </defs>
</svg>
