<svg width="64" height="65" viewBox="0 0 64 65" fill="none" xmlns="http://www.w3.org/2000/svg">
    <g clip-path="url(#clip0_733_442)">
        <path d="M61.8026 58.7436C59.6152 60.1097 56.7284 59.4429 55.3542 57.2555L34.1305 23.2894C32.7644 21.102 33.4312 18.2153 35.6186 16.841C37.806 15.4749 40.6928 16.1417 42.067 18.3291L63.2907 52.2951C64.6568 54.4826 63.99 57.3693 61.8026 58.7436Z" fill="url(#paint0_linear_733_442)"/>
        <path d="M45.0919 58.7436C42.9045 60.1097 40.0178 59.4429 38.6435 57.2555L17.4198 23.2894C16.0537 21.102 16.7205 18.2153 18.9079 16.841C21.0953 15.4749 23.9821 16.1417 25.3563 18.3291L46.58 52.2951C47.9461 54.4826 47.2793 57.3693 45.0919 58.7436Z" fill="url(#paint1_linear_733_442)"/>
        <path d="M58.4279 25.4852C61.0138 25.4852 63.1036 23.3872 63.1036 20.8094C63.1036 18.2236 61.0056 16.1337 58.4279 16.1337H46.3605L52.2072 25.4852H58.4279Z" fill="url(#paint2_linear_733_442)"/>
        <path d="M28.3814 58.7436C26.194 60.1097 23.3072 59.4429 21.933 57.2555L0.709308 23.2894C-0.656813 21.0939 0.00998421 18.2071 2.1974 16.841C4.38483 15.4749 7.27157 16.1417 8.64582 18.3291L29.8695 52.2951C31.2437 54.4826 30.577 57.3693 28.3814 58.7436Z" fill="url(#paint3_linear_733_442)"/>
        <path d="M29.26 14.7351C31.8379 14.7351 33.9276 12.6453 33.9276 10.0675C33.9276 7.48965 31.8379 5.3999 29.26 5.3999C26.6822 5.3999 24.5925 7.48965 24.5925 10.0675C24.5925 12.6453 26.6822 14.7351 29.26 14.7351Z" fill="#F0B7CD"/>
    </g>
    <defs>
        <linearGradient id="paint0_linear_733_442" x1="41.7221" y1="17.955" x2="55.3621" y2="56.6727" gradientUnits="userSpaceOnUse">
            <stop offset="0.045252" stop-color="#F0B7CD"/>
            <stop offset="0.3578" stop-color="#EDB6D1"/>
            <stop offset="0.6747" stop-color="#E6B2DD"/>
            <stop offset="0.9928" stop-color="#D9ACF1"/>
            <stop offset="1" stop-color="#D9ACF2"/>
        </linearGradient>
        <linearGradient id="paint1_linear_733_442" x1="25.0117" y1="17.9561" x2="38.6518" y2="56.6738" gradientUnits="userSpaceOnUse">
            <stop offset="0.045252" stop-color="#F0B7CD"/>
            <stop offset="0.3578" stop-color="#EDB6D1"/>
            <stop offset="0.6747" stop-color="#E6B2DD"/>
            <stop offset="0.9928" stop-color="#D9ACF1"/>
            <stop offset="1" stop-color="#D9ACF2"/>
        </linearGradient>
        <linearGradient id="paint2_linear_733_442" x1="52.459" y1="13.2049" x2="58.5698" y2="25.9294" gradientUnits="userSpaceOnUse">
            <stop offset="0.233" stop-color="#F0B7CD"/>
            <stop offset="0.9602" stop-color="#EFB7CE"/>
        </linearGradient>
        <linearGradient id="paint3_linear_733_442" x1="8.30334" y1="17.9566" x2="21.9434" y2="56.6743" gradientUnits="userSpaceOnUse">
            <stop offset="0.045252" stop-color="#F0B7CD"/>
            <stop offset="0.3578" stop-color="#EDB6D1"/>
            <stop offset="0.6747" stop-color="#E6B2DD"/>
            <stop offset="0.9928" stop-color="#D9ACF1"/>
            <stop offset="1" stop-color="#D9ACF2"/>
        </linearGradient>
        <clipPath id="clip0_733_442">
            <rect width="64" height="64" fill="white" transform="translate(0 0.399902)"/>
        </clipPath>
    </defs>
</svg>
