<svg width="64" height="65" viewBox="0 0 64 65" fill="none" xmlns="http://www.w3.org/2000/svg">
    <g clip-path="url(#clip0_733_502)">
        <path d="M18.6047 59.8786C18.6047 61.4889 18.5925 62.9688 18.5746 64.2798C18.7398 63.6632 18.9904 62.1815 19.087 60.2174C19.087 60.2155 19.087 60.2127 19.087 60.2108C18.9247 60.1001 18.7642 59.9875 18.6047 59.873V59.8786Z" fill="#292C56"/>
        <path d="M52.0273 11.5877C52.0892 11.537 52.1474 11.4835 52.2 11.4263C53.5138 10.0187 54.0768 9.10841 54.0768 6.82805C54.0768 4.5477 52.2281 2.69902 49.9478 2.69902C47.6674 2.69902 45.4434 3.63744 45.2557 9.83099C45.2547 9.86289 45.2557 9.89386 45.2557 9.92577C45.1947 9.86196 45.083 7.78524 45.0211 7.72143C40.6537 3.20671 34.5315 0.399902 27.7542 0.399902C14.4869 0.399902 7.34367 13.549 7.34367 26.8163C7.34367 27.0781 7.34742 27.339 7.35305 27.5999C7.35493 27.6806 7.35774 27.7604 7.35962 27.8411C7.36525 28.0259 7.37088 28.2108 7.37933 28.3957C7.38308 28.483 7.38683 28.5702 7.39153 28.6575C7.40091 28.8499 7.41311 29.0422 7.42625 29.2346C7.43094 29.3041 7.43469 29.3735 7.44032 29.442C7.45909 29.7029 7.48067 29.9638 7.50601 30.2237C7.50883 30.2537 7.51258 30.2828 7.5154 30.3129C7.53792 30.5428 7.56232 30.7727 7.58953 31.0007C7.59798 31.0749 7.60736 31.149 7.61675 31.2231C7.64021 31.4136 7.66554 31.6041 7.69276 31.7946C7.70308 31.8688 7.7134 31.9429 7.72466 32.017C7.75657 32.2338 7.79129 32.4506 7.82695 32.6664C7.83352 32.7049 7.83915 32.7434 7.84572 32.7818C7.89076 33.0437 7.93862 33.3055 7.9893 33.5654C7.99493 33.5964 8.0015 33.6264 8.00806 33.6574C8.05217 33.8817 8.09909 34.105 8.14789 34.3265C8.16103 34.3875 8.1751 34.4485 8.18918 34.5095C8.23422 34.7112 8.28208 34.912 8.33088 35.1119C8.34402 35.1664 8.35716 35.2198 8.37029 35.2743C8.49792 35.7838 8.6368 36.2887 8.78883 36.787C8.79727 36.8152 8.80666 36.8433 8.8151 36.8715C8.8273 36.9099 8.8395 36.9484 8.8517 36.9869C8.85358 36.9935 8.85639 37.001 8.85827 37.0075C8.99528 36.0569 9.18859 35.1082 9.44103 34.166C9.79669 32.8391 10.2593 31.5591 10.8196 30.3344C10.8196 30.3269 10.8196 30.3204 10.8186 30.3129C10.8186 30.3054 10.8186 30.2978 10.8177 30.2894C10.5362 24.5651 13.8206 16.6824 14.196 16.1193C14.5713 15.5563 14.8688 15.3686 15.0406 15.3686C15.7913 15.3686 15.9489 17.267 16.1516 17.7249C16.3543 18.1829 17.0497 18.7469 17.762 18.7469C18.1317 18.7469 18.4742 18.6324 18.7586 18.44C20.3295 17.145 22.2082 16.2094 24.2699 15.7618C25.1163 15.5778 26.1139 15.4634 26.2077 15.088C26.3016 14.7126 25.5977 14.1027 25.0347 13.7273C24.4716 13.3519 24.5655 13.3519 23.2986 13.0235C24.6124 13.0235 25.7385 13.8681 26.4479 14.6038C28.5744 14.3739 27.2869 14.2903 33.0112 14.2903C38.7356 14.2903 45.3777 16.8616 49.8943 20.7983C50.782 21.5715 51.545 22.5015 52.2957 22.5015C53.0464 22.5015 53.4415 21.7376 53.7831 20.8508C54.1857 19.8045 54.4071 18.669 54.4071 17.481C54.4071 14.7924 53.6348 12.8377 52.0292 11.5896L52.0273 11.5877ZM52.3407 16.6345C51.926 16.6345 51.59 16.2986 51.59 15.8838C51.59 15.469 51.926 15.133 52.3407 15.133C52.7555 15.133 53.0915 15.469 53.0915 15.8838C53.0915 16.2986 52.7555 16.6345 52.3407 16.6345Z" fill="#292C56"/>
        <path d="M43.6641 59.4319L43.6285 59.4526C43.1799 59.7116 43.0279 60.2831 43.2878 60.7298C43.4614 61.0282 43.7767 61.1952 44.1005 61.1952C44.26 61.1952 44.4224 61.1539 44.5706 61.0685L44.6063 61.0479C45.0549 60.7889 45.2069 60.2174 44.947 59.7707C44.687 59.325 44.1127 59.1729 43.6641 59.4319Z" fill="#292C56"/>
        <path d="M53.4377 28.3722C50.2302 22.8159 45.0511 18.8426 38.8538 17.1816C32.6575 15.5216 26.1852 16.3737 20.6288 19.5812C16.2633 22.1018 12.8747 25.8404 10.8177 30.3335C10.9087 32.2001 10.9416 33.6771 11.1123 35.0707C12.1099 31.0449 14.2373 27.3006 17.3566 24.354C18.0407 24.5688 18.6028 25.0765 18.8768 25.74C19.1855 26.486 19.0279 27.3484 18.4752 27.9387L17.3716 29.1164C17.3228 29.169 17.2796 29.2271 17.243 29.2891L14.7365 33.6462L12.5087 35.2321C12.0939 35.5277 11.9916 36.0982 12.2788 36.5186L13.1121 37.7358C12.6316 37.8071 12.2009 37.8653 11.9147 37.8972C11.8593 37.8446 11.8021 37.7911 11.742 37.7358C11.7082 37.7048 11.6726 37.672 11.635 37.6382C11.8349 38.3101 12.0939 39.0064 12.4336 39.759C12.6814 39.7271 12.976 39.6849 13.3298 39.6332C14.1218 39.5159 14.9092 39.3846 14.9167 39.3827C15.4478 39.2935 15.841 38.7586 15.6543 38.1271C15.6449 38.0952 15.6289 38.0642 15.6102 38.037L14.3855 36.2409L16.1451 34.9825C16.1817 34.9562 16.2117 34.9233 16.2333 34.8849L18.8562 30.3054L19.8856 29.2018C20.9376 28.0738 21.2379 26.4241 20.6504 24.9977C20.3041 24.1569 19.6979 23.4559 18.9406 22.9848C19.7608 22.3401 20.6354 21.7442 21.5644 21.2084C24.9746 19.2396 28.6955 18.2852 32.3778 18.2486L30.7018 20.3507L24.4885 22.5287C24.2361 22.6169 24.0334 22.8093 23.9321 23.0561L22.1969 27.263C22.074 27.5615 22.1125 27.903 22.3011 28.1658L24.8357 31.7158C24.4726 32.0471 24.1197 32.5294 23.6975 33.1281C23.5126 33.3909 23.338 33.6386 23.217 33.7775C23.1119 33.8986 23.0068 34.0168 22.9026 34.1341C22.3574 34.7479 21.7934 35.3813 21.3936 36.2287C20.5134 38.0924 20.6908 40.2582 21.8582 41.8817C22.9861 43.4517 24.8461 44.2493 26.8308 44.0157C27.1546 43.9781 27.4558 43.903 27.7477 43.8308C28.5519 43.6318 28.8071 43.6121 29.0652 43.8533C29.1909 43.9706 29.2022 43.9931 29.1994 44.392C29.1975 44.6453 29.1956 44.9616 29.2829 45.3219C29.4227 45.8991 29.785 46.2969 30.0759 46.6169C30.2204 46.7765 30.3705 46.9407 30.4165 47.0514C30.7093 47.7524 30.5817 48.1409 30.302 48.9921C30.2776 49.0653 30.2542 49.1394 30.2288 49.2154C29.8047 50.5292 30.3959 51.8317 30.9176 52.9803C31.0875 53.3538 31.247 53.7057 31.3521 54.0173C32.1957 56.521 32.8282 57.0944 33.3359 57.3252C33.6015 57.4463 33.8774 57.4988 34.1552 57.4988C35.5084 57.4988 36.9197 56.2423 37.5682 55.4465C37.9755 54.9463 38.0759 54.4462 38.1491 54.0802C38.1857 53.8981 38.2148 53.7545 38.2692 53.6607C38.3527 53.5171 38.4522 53.4054 38.577 53.2647C38.8285 52.9813 39.1419 52.6284 39.3446 51.9903C39.4985 51.5052 39.6102 51.386 39.9818 50.9909C40.0465 50.9224 40.115 50.8492 40.1892 50.7685C41.4392 49.4087 41.1173 48.3699 40.7766 47.2691C40.4895 46.3439 40.9915 45.7517 42.2049 44.6219C42.7304 44.132 43.2747 43.6253 43.6951 43.0172C43.879 42.7507 44.4383 41.9408 44.0921 41.1375C43.7524 40.3502 42.8899 40.2179 42.1965 40.1118C41.9224 40.0696 41.5086 40.0067 41.3772 39.9204C40.7963 39.5413 40.4416 38.7483 40.0982 37.9826C40.0297 37.8305 39.9621 37.6795 39.8936 37.5331C39.7716 37.2722 39.6496 36.9569 39.521 36.6228C39.1794 35.7388 38.7928 34.7375 38.134 34.0393C37.5419 33.4115 36.4261 33.1094 35.4408 32.8429C35.0316 32.7321 34.6516 32.6289 34.4648 32.5407C34.401 32.5107 34.3306 32.4994 34.2621 32.5135C33.6578 32.6383 33.305 32.7706 33.0525 32.9733C32.9943 33.0202 32.8198 33.1751 32.7184 33.4228C32.3675 33.2548 31.8823 32.9301 31.5933 32.7368C31.6909 32.3446 31.6027 32.0302 31.5098 31.8331C30.9852 30.7239 29.2454 30.8112 28.9019 30.8403C28.7067 30.8562 28.4599 30.8656 28.199 30.875C27.7889 30.8891 27.3357 30.906 26.8881 30.9557L27.2925 29.8287C27.4051 29.5152 27.7026 29.306 28.0367 29.306H29.6264C30.0965 29.306 30.5169 28.9738 30.5835 28.5111C30.6671 27.934 30.2194 27.4376 29.6555 27.4376H29.1102C27.6078 27.4376 26.2331 28.2249 25.4617 29.4636L24.0559 27.5033L25.4392 24.1653L31.5379 22.037C31.705 21.9788 31.8523 21.8747 31.963 21.7367L34.6741 18.3509C41.6015 19.0069 48.1226 22.8741 51.8584 29.3172C52.854 31.0336 53.5898 32.8401 54.0796 34.6887L53.6799 35.0435C53.1525 35.5117 52.8465 36.1855 52.8409 36.8893L52.1897 35.1063C52.093 34.8408 51.9494 34.5968 51.7655 34.3819L50.3306 32.7087C50.0548 32.3877 49.6522 32.2029 49.228 32.2029H47.2358C47.0959 32.2029 46.957 32.2357 46.8322 32.2995C45.9933 32.7274 45.8122 33.664 46.2485 34.3162L46.3921 34.5311C45.4734 35.3175 44.4111 35.9462 43.2803 36.3713L41.3322 32.6561V31.8191C41.3322 31.5629 41.2271 31.317 41.0422 31.1406L39.1973 29.3801C39.1654 29.3501 39.1278 29.3266 39.0856 29.3116L37.3852 28.7138C36.642 28.452 35.7918 29.183 36.2732 30.2097C36.3098 30.2876 36.3764 30.3486 36.458 30.3776L38.1444 30.9707L39.4544 32.2216V33.0343C39.4544 33.084 39.4666 33.1328 39.4891 33.1769L41.9891 37.9657C42.2077 38.3842 42.7032 38.5757 43.1452 38.4114L43.8518 38.1506C45.495 37.5443 47.0171 36.5703 48.2549 35.3325C48.5711 35.0162 48.6199 34.5208 48.3722 34.1482L48.3224 34.0731H48.9183C48.9643 34.0731 49.0084 34.0938 49.0384 34.1285L50.3278 35.6384C50.34 35.6525 50.3494 35.6694 50.356 35.6863L51.7092 39.4062C51.7242 39.4465 51.7458 39.484 51.7749 39.515C52.0001 39.7543 52.2704 39.866 52.5341 39.866C52.7799 39.866 53.0202 39.7693 53.1975 39.591L53.8047 38.9839C54.1894 38.5991 54.454 38.1121 54.5807 37.5734C55.5201 45.1005 52.5688 52.8856 46.3311 57.7822C45.7127 58.2674 45.8685 59.3719 46.988 59.523C47.0734 59.5342 47.1616 59.5117 47.2301 59.4601C51.8753 55.9176 55.0668 50.776 56.2023 45.0226C57.3275 39.3226 56.345 33.4097 53.4368 28.3722H53.4377ZM26.1251 33.0427C26.5437 32.8081 27.5149 32.7744 28.2244 32.749C28.5087 32.7387 28.7771 32.7293 29.0173 32.7096C29.144 32.6993 29.2848 32.7012 29.4171 32.7115C29.358 32.8626 29.3383 33.0287 29.3645 33.1938C29.4096 33.4838 29.5888 33.7353 29.8488 33.8742C30.0252 33.968 30.2701 34.1304 30.5291 34.303C31.262 34.7901 32.0935 35.3419 32.8742 35.3907C33.5846 35.4366 33.9797 35.0341 34.1486 34.8623C34.1617 34.8483 34.1749 34.8351 34.188 34.8229C34.2837 34.746 34.3729 34.6418 34.4395 34.517C34.5896 34.5592 34.7473 34.6024 34.9087 34.6456C35.4643 34.7957 36.4984 35.0744 36.7274 35.3147C37.1328 35.7426 37.4499 36.5581 37.7287 37.2778C37.8694 37.641 38.0027 37.9844 38.1528 38.3026C38.2166 38.4386 38.2804 38.5794 38.3443 38.722C38.7769 39.6839 39.2677 40.7734 40.3093 41.451C40.7813 41.7578 41.3603 41.847 41.8708 41.9249C41.9328 41.9342 42.0031 41.9455 42.0754 41.9568C41.7723 42.3781 41.3406 42.7779 40.8845 43.2002C39.7228 44.2775 38.2776 45.6175 38.943 47.7562C39.2573 48.7659 39.2714 48.8748 38.7665 49.4219C38.698 49.4969 38.6333 49.5645 38.5732 49.6283C38.1406 50.0872 37.799 50.4494 37.5156 51.3372C37.4331 51.5952 37.327 51.7144 37.1337 51.9312C36.9789 52.1048 36.7865 52.3206 36.6091 52.6228C36.3961 52.985 36.3257 53.3351 36.2694 53.6157C36.214 53.8915 36.1821 54.0304 36.0733 54.1637C35.8255 54.4668 35.3629 54.906 34.889 55.2063C34.4479 55.485 34.1908 55.5234 34.1026 55.5178C34.0022 55.4108 33.64 54.9426 33.0919 53.3238C32.9568 52.924 32.7691 52.513 32.588 52.1161C32.1882 51.2396 31.7753 50.334 31.9762 49.7147C31.9996 49.6415 32.0231 49.5701 32.0465 49.5007C32.3675 48.5266 32.6706 47.606 32.1094 46.2669C31.9386 45.8587 31.6665 45.5612 31.4262 45.2975C31.2714 45.1277 31.095 44.9344 31.0678 44.8236C31.0349 44.6885 31.0359 44.5318 31.0368 44.3507C31.0396 43.8627 31.0453 43.1251 30.3086 42.4382C29.2707 41.4707 28.0592 41.7691 27.2578 41.9662C27.0119 42.0271 26.7792 42.0844 26.5728 42.1079C25.2543 42.2618 24.0775 41.7663 23.3427 40.749C22.5742 39.6839 22.4625 38.2519 23.0518 37.0104C23.3371 36.4098 23.7678 35.9265 24.2661 35.3681C24.375 35.2462 24.4848 35.1232 24.5946 34.9965C24.7776 34.7863 24.9793 34.502 25.1914 34.2008C25.4457 33.8413 25.9187 33.1723 26.1242 33.0456L26.1251 33.0427Z" fill="#292C56"/>
        <path d="M16.8761 45.7658C16.9906 45.8521 17.1229 45.9112 17.2637 45.9394L19.5956 46.3927C19.8931 46.4508 20.1418 46.6254 20.2947 46.8863C20.4477 47.1462 20.4806 47.4474 20.3858 47.7346C20.1915 48.3239 20.1906 48.948 20.383 49.5382L20.6804 50.4485C20.8578 50.9928 20.5575 51.5793 20.0113 51.7566L19.0786 52.0579C18.8393 52.1358 18.646 52.3037 18.5343 52.5214C19.1105 55.3273 19.1912 58.0581 19.0861 60.2099C20.8174 61.3932 22.7074 62.3532 24.7147 63.0542C27.2869 63.9514 29.9726 64.3999 32.6537 64.3999C35.6773 64.3999 38.6952 63.8303 41.5358 62.6929C41.6156 62.661 41.6794 62.5982 41.7132 62.5193C42.1599 61.4805 41.2899 60.7786 40.5561 61.061C33.2346 63.8753 25.3087 62.5963 19.3873 58.1519L20.2281 53.763L20.6335 53.6316C22.1641 53.1342 23.0049 51.4845 22.5085 49.953L22.1369 48.8081C22.1115 48.7293 22.1172 48.6458 22.1472 48.5688C22.485 47.7271 22.4118 46.7802 21.9567 46.0041C21.5335 45.2825 20.8193 44.7767 19.9982 44.6153L17.8802 44.2014L13.7934 41.0944C13.5682 40.9236 13.2801 40.8654 13.007 40.9301C13.5363 41.9483 14.2082 43.081 15.0621 44.391L16.877 45.7649L16.8761 45.7658Z" fill="#292C56"/>
        <path d="M18.0782 54.6938L17.6982 56.6711C16.0484 55.1677 14.5995 53.3904 13.4237 51.3634C11.9888 48.8897 11.0926 46.2518 10.6976 43.5839L11.6651 43.2705C11.3441 42.7478 11.041 42.2101 10.7548 41.6573L10.5418 41.7268C10.5315 41.5476 10.524 41.3683 10.5174 41.1891C10.2987 40.7452 10.0904 40.2938 9.89428 39.834C9.69252 39.362 9.50203 38.8806 9.32373 38.3926C9.31059 38.3579 9.29839 38.3222 9.28619 38.2866C9.21205 38.081 9.1398 37.8737 9.06942 37.6663C9.05252 37.6175 9.03657 37.5687 9.02062 37.5189C8.96431 37.3491 8.90988 37.1773 8.8564 37.0056C8.09346 42.3077 9.11821 47.6782 11.8387 52.3891C13.5522 55.3563 15.8664 57.8995 18.6047 59.872C18.6047 59.6778 18.6047 59.4826 18.6047 59.2846C18.6047 57.7052 18.4217 56.1681 18.0782 54.6929V54.6938Z" fill="#292C56"/>
        <path d="M47.0443 48.5857L46.5929 46.8919C46.4944 46.5221 46.1791 46.2491 45.7972 46.204C45.4152 46.1599 45.0445 46.3495 44.8616 46.6864C44.7583 46.875 44.6664 47.0749 44.5763 47.2682C44.4261 47.5938 44.2703 47.9298 44.108 48.1156C44.017 48.2197 43.7833 48.3323 43.5572 48.4412C43.0166 48.7011 42.2772 49.0559 41.9947 49.953C41.8192 50.5095 41.8849 50.9496 41.9328 51.2705C41.974 51.5492 41.9834 51.6459 41.9084 51.8214L41.899 51.843C41.6006 52.5411 41.045 53.8399 41.8239 54.9444C42.3794 55.7327 42.9641 55.9354 43.4183 55.9354C43.5065 55.9354 43.5909 55.9279 43.6688 55.9157C44.626 55.7599 45.3458 54.7689 45.9332 52.7964L47.0368 49.0934C47.0856 48.9282 47.0884 48.7537 47.0443 48.5876V48.5857ZM44.1343 52.2634C43.8349 53.2693 43.5694 53.7386 43.4164 53.9469C43.3986 53.9244 43.3798 53.899 43.3591 53.8699C43.1799 53.6156 43.4474 52.9897 43.6247 52.5749L43.6341 52.5533C43.9203 51.8852 43.8434 51.3719 43.788 50.9965C43.7523 50.7563 43.7392 50.653 43.7843 50.5113C43.8209 50.395 44.0404 50.2814 44.3717 50.1228C44.5181 50.0525 44.6804 49.9746 44.8437 49.8807L44.1333 52.2634H44.1343Z" fill="#292C56"/>
        <path d="M33.8445 27.5042C33.3556 27.3334 32.8198 27.5896 32.649 28.0766C32.4773 28.5636 32.7344 29.0967 33.2242 29.2674L33.2871 29.289C33.3894 29.3247 33.4945 29.3416 33.5977 29.3416C33.9853 29.3416 34.3475 29.1004 34.4836 28.7166C34.6553 28.2296 34.3982 27.6965 33.9083 27.5257L33.8455 27.5042H33.8445Z" fill="#292C56"/>
        <path d="M18.6047 59.8786C18.6047 61.4889 18.5925 62.9688 18.5746 64.2798C18.7398 63.6632 18.9904 62.1815 19.087 60.2174C19.087 60.2155 19.087 60.2127 19.087 60.2108C18.9247 60.1001 18.7642 59.9875 18.6047 59.873V59.8786Z" fill="#292C56"/>
    </g>
    <defs>
        <clipPath id="clip0_733_502">
            <rect width="64" height="64" fill="white" transform="translate(0 0.399902)"/>
        </clipPath>
    </defs>
</svg>
