<?xml version="1.0" encoding="UTF-8"?>
<svg id="_레이어_2" data-name="레이어 2" xmlns="http://www.w3.org/2000/svg" viewBox="0 0 1418.26 1418.26">
    <defs>
        <style>
            .cls-1 {
            fill: #182e6b;
            }
        </style>
    </defs>
    <g id="_레이어_1-2">
        <g>
            <rect class="cls-1" x="0" y="982.68" width="215.83" height="435.57"/>
            <polygon class="cls-1" points="0 0 0 209.99 215.83 209.99 215.83 645.57 431.67 645.57 431.67 209.99 647.5 209.99 647.5 0 0 0"/>
            <rect class="cls-1" x="431.67" y="982.68" width="215.83" height="435.57"/>
            <polygon class="cls-1" points="774.62 772.69 774.62 1418.26 1418.26 1418.26 1418.26 1208.26 990.46 1208.26 990.46 982.68 1202.42 982.68 1202.42 1095.87 1418.26 1095.87 1418.26 772.69 774.62 772.69"/>
            <polygon class="cls-1" points="774.62 645.57 983.41 0 774.62 0 774.62 645.57"/>
            <polygon class="cls-1" points="1418.26 0 1209.48 0 1418.26 645.57 1418.26 0"/>
            <polygon class="cls-1" points="1199.62 645.57 1096.44 326.54 993.26 645.57 1199.62 645.57"/>
        </g>
    </g>
</svg>