<svg width="64" height="65" viewBox="0 0 64 65" fill="none" xmlns="http://www.w3.org/2000/svg">
    <g clip-path="url(#clip0_733_319)">
        <path d="M49.0254 45.0909H23.3985L17.9743 33.5141L49.0254 45.0909Z" fill="#F9BF3D"/>
        <path d="M49.0254 45.0909L17.9743 33.5141L2.46716 0.399902L49.0254 45.0909Z" fill="#FCD13E"/>
        <path d="M15.0786 34.1447L2.46716 0.399902L17.9743 33.5141L23.3985 45.0909L24.0903 58.235L20.0987 47.5826L15.0786 34.1447Z" fill="#EEAA3D"/>
        <path d="M20.0987 47.5826L24.0903 58.235L17.9743 49.4009L17.956 49.3764L20.0987 47.5826Z" fill="#FCD13E"/>
        <path d="M15.0786 34.1447L20.0987 47.5826L17.956 49.3764L-3.05176e-05 64.3999L15.0786 34.1447Z" fill="#F9BF3D"/>
        <path d="M15.0786 34.1447L-3.05176e-05 64.3999L2.46716 0.399902L15.0786 34.1447Z" fill="#FCD13E"/>
    </g>
    <defs>
        <clipPath id="clip0_733_319">
            <rect width="64" height="64" fill="white" transform="translate(0 0.399902)"/>
        </clipPath>
    </defs>
</svg>
