<svg width="24" height="24" viewBox="0 0 24 24" fill="none" xmlns="http://www.w3.org/2000/svg">
<mask id="mask0_575_1278" style="mask-type:alpha" maskUnits="userSpaceOnUse" x="0" y="0" width="24" height="24">
<rect width="24" height="24" fill="#D9D9D9"/>
</mask>
<g mask="url(#mask0_575_1278)">
<path d="M12.0001 14.6501C11.8834 14.6501 11.7711 14.6334 11.6631 14.6001C11.5544 14.5667 11.4584 14.5001 11.3751 14.4001L6.8501 9.90008C6.71677 9.75008 6.6501 9.57508 6.6501 9.37508C6.6501 9.17508 6.7251 9.00008 6.8751 8.85008C7.0251 8.71675 7.2001 8.65008 7.4001 8.65008C7.6001 8.65008 7.7751 8.71675 7.9251 8.85008L12.0001 12.9251L16.1001 8.85008C16.2334 8.70008 16.4001 8.62908 16.6001 8.63708C16.8001 8.64575 16.9751 8.71675 17.1251 8.85008C17.2751 9.00008 17.3501 9.17908 17.3501 9.38708C17.3501 9.59575 17.2751 9.76675 17.1251 9.90008L12.6251 14.4001C12.5418 14.5001 12.4461 14.5667 12.3381 14.6001C12.2294 14.6334 12.1168 14.6501 12.0001 14.6501Z" fill="white"/>
</g>
</svg>
