<svg width="273" height="21" viewBox="0 0 273 21" fill="none" xmlns="http://www.w3.org/2000/svg">
    <path d="M0 6.84889C0 7.48534 0.347155 8.10251 1.1379 8.10251H2.00578V12.6155C2.00578 15.4506 3.06654 16.5885 5.65091 16.5885C6.34522 16.5885 7.17454 16.4342 7.63741 16.2414C9.23818 15.5856 8.46673 13.2905 7.13597 13.792C6.78881 13.9077 6.3838 14.0234 6.0945 14.0234C5.2459 14.0234 4.9566 13.5991 4.9566 12.5384V8.10251H7.02025C7.7917 8.10251 8.19672 7.46606 8.19672 6.82961C8.19672 6.21244 7.83028 5.57599 7.03953 5.57599H4.9566V3.74378C4.9566 2.91447 4.24301 2.50945 3.49084 2.50945C2.75795 2.50945 2.00578 2.91447 2.00578 3.74378V5.57599H1.15718C0.385728 5.57599 0 6.23173 0 6.84889Z" fill="#7A6E69"/>
    <path d="M9.72141 15.4313C9.72141 16.2607 10.4543 16.6657 11.2065 16.6657C11.9393 16.6657 12.6722 16.2607 12.6722 15.4313V9.74185C13.0772 8.52681 13.8101 8.04465 14.7937 8.04465C16.1245 8.04465 16.7802 8.79682 16.7802 9.87686V15.4313C16.7802 16.2607 17.5131 16.6657 18.246 16.6657C18.9789 16.6657 19.731 16.2607 19.731 15.4313V9.31755C19.731 6.71389 17.9374 5.4217 15.8352 5.4217C14.6973 5.4217 13.5015 5.82671 12.6722 6.81032V2.00801C12.6722 1.19798 11.9393 0.792961 11.2065 0.792961C10.4543 0.792961 9.72141 1.19798 9.72141 2.00801V15.4313Z" fill="#7A6E69"/>
    <path d="M21.4536 15.4313C21.4536 16.2607 22.1672 16.6657 22.9194 16.6657C23.6522 16.6657 24.4044 16.2607 24.4044 15.4313V6.63674C24.4044 5.82671 23.6715 5.40241 22.9386 5.40241C22.1865 5.40241 21.4536 5.82671 21.4536 6.63674V15.4313ZM21.2607 2.39373C21.2607 3.30019 21.9743 4.01379 22.9194 4.01379C23.8451 4.01379 24.5973 3.30019 24.5973 2.39373C24.5973 1.46799 23.8451 0.735102 22.9194 0.735102C21.9743 0.735102 21.2607 1.46799 21.2607 2.39373Z" fill="#7A6E69"/>
    <path d="M30.3123 5.34455C27.6508 5.34455 26.0501 6.81032 26.0501 8.66181C26.0501 10.4747 27.3422 11.5355 28.9623 11.8826L29.9845 12.0948C30.8717 12.3069 31.4888 12.6155 31.4888 13.252C31.4888 13.8884 30.8331 14.2356 29.8495 14.2356C29.2323 14.2356 28.1523 13.9077 27.6315 13.6184C26.0693 12.8084 25.0472 15.1035 26.4551 15.9521C27.323 16.4728 28.4416 16.7235 29.888 16.7235C32.511 16.7235 34.4011 15.1806 34.4011 13.0977C34.4011 11.4198 33.2439 10.3204 31.3924 9.93472L30.4473 9.74185C29.5216 9.54899 28.9816 9.24041 28.9816 8.62324C28.9816 8.00608 29.483 7.67821 30.5631 7.67821C31.1417 7.67821 32.0867 7.92893 32.511 8.14108C33.9768 8.85468 34.9796 6.77175 33.5525 6.01958C32.916 5.69171 31.8938 5.34455 30.3123 5.34455Z" fill="#7A6E69"/>
    <path d="M38.9728 8.83539V4.76596C38.9728 4.38023 39.0692 4.2838 39.4357 4.2838H40.7086C42.7336 4.2838 43.4087 4.97811 43.4087 6.50174C43.4087 7.90964 42.7529 8.83539 40.7086 8.83539H38.9728ZM36.0027 15.4313C36.0027 16.2607 36.7356 16.6657 37.4877 16.6657C38.2206 16.6657 38.9728 16.2607 38.9728 15.4313V11.3426H41.3257C44.5273 11.3426 46.4366 9.62613 46.4366 6.38602C46.4366 3.33877 44.6237 1.75728 41.1907 1.75728H38.3942C36.9092 1.75728 36.0027 2.2973 36.0027 3.89807V15.4313Z" fill="#7A6E69"/>
    <path d="M47.5927 15.4313C47.5927 16.2607 48.3256 16.6657 49.0584 16.6657C49.7913 16.6657 50.5435 16.2607 50.5435 15.4313V1.83443C50.5435 1.0244 49.7913 0.600098 49.0584 0.600098C48.3063 0.600098 47.5927 1.0244 47.5927 1.83443V15.4313Z" fill="#7A6E69"/>
    <path d="M56.8914 5.30598C55.6378 5.30598 54.2106 5.57599 53.2656 6.01958C51.8963 6.63674 52.5134 9.04754 54.1721 8.37252C54.7507 8.14108 55.6185 7.89036 56.1586 7.89036C57.8172 7.89036 58.3572 8.33394 58.3572 9.35612V9.68399C57.7786 9.60685 56.5443 9.56827 55.6957 9.70328C54.0563 9.954 51.9156 10.8605 51.9156 13.2906C51.9156 15.4892 53.3813 16.5692 55.2328 16.5692C56.4479 16.5692 57.8558 16.1449 58.4344 15.2963V15.4699C58.4344 16.2414 59.1479 16.685 59.8423 16.685C60.5751 16.685 61.2887 16.2414 61.2887 15.3542V9.12469C61.2887 6.46316 59.3601 5.30598 56.8914 5.30598ZM56.1393 14.2163C55.58 14.2163 54.8664 13.9077 54.8664 13.117C54.8664 12.0948 55.6185 11.8441 56.39 11.6898C56.8914 11.5933 57.9522 11.5933 58.3572 11.7091V12.6541C58.1836 13.5798 57.4315 14.2163 56.1393 14.2163Z" fill="#7A6E69"/>
    <path d="M67.6947 12.6927L64.9946 6.32816C64.2038 4.45738 61.3302 5.53742 62.1981 7.44677L66.1518 15.8749L66.0939 16.0292C65.5346 17.495 64.8017 18.035 64.1653 18.035C63.8374 18.035 63.5095 18.0157 63.2588 17.9579C61.6002 17.5721 61.2337 19.8865 62.5452 20.3687C63.0274 20.5422 63.6445 20.6001 64.2424 20.6001C65.7853 20.6001 67.444 19.6936 68.6976 16.82L72.9792 7.17676C73.7313 5.47956 70.8962 4.53452 70.2212 6.23173L67.6947 12.6927Z" fill="#7A6E69"/>
    <path d="M74.0785 16.4149C74.0785 17.3407 74.8114 18.0736 75.7372 18.0736C76.6436 18.0736 77.3958 17.3407 77.3958 16.4149C77.3958 15.5085 76.6436 14.7563 75.7372 14.7563C74.8114 14.7563 74.0785 15.5085 74.0785 16.4149ZM74.3871 11.7476C74.445 13.4256 77.0293 13.4256 77.0872 11.7476L77.4151 2.25873C77.4729 0.619384 74.0207 0.619384 74.0785 2.25873L74.3871 11.7476Z" fill="#7A6E69"/>
    <mask id="mask0_683_1865" style="mask-type:alpha" maskUnits="userSpaceOnUse" x="89" y="0" width="21" height="21">
        <rect x="89.4158" y="0.600098" width="20" height="20" fill="#D9D9D9"/>
    </mask>
    <g mask="url(#mask0_683_1865)">
        <path d="M99.4158 11.7667L95.3324 15.85C95.1796 16.0028 94.9852 16.0792 94.7491 16.0792C94.513 16.0792 94.3185 16.0028 94.1658 15.85C94.013 15.6972 93.9366 15.5028 93.9366 15.2667C93.9366 15.0306 94.013 14.8361 94.1658 14.6834L98.2491 10.6L94.1658 6.51668C94.013 6.36391 93.9366 6.16946 93.9366 5.93335C93.9366 5.69724 94.013 5.50279 94.1658 5.35002C94.3185 5.19724 94.513 5.12085 94.7491 5.12085C94.9852 5.12085 95.1796 5.19724 95.3324 5.35002L99.4158 9.43335L103.499 5.35002C103.652 5.19724 103.846 5.12085 104.082 5.12085C104.319 5.12085 104.513 5.19724 104.666 5.35002C104.819 5.50279 104.895 5.69724 104.895 5.93335C104.895 6.16946 104.819 6.36391 104.666 6.51668L100.582 10.6L104.666 14.6834C104.819 14.8361 104.895 15.0306 104.895 15.2667C104.895 15.5028 104.819 15.6972 104.666 15.85C104.513 16.0028 104.319 16.0792 104.082 16.0792C103.846 16.0792 103.652 16.0028 103.499 15.85L99.4158 11.7667Z" fill="#332018" fill-opacity="0.65"/>
    </g>
    <path d="M131.68 0.533447C131.68 0.533447 125.325 1.96824 124.459 7.4813C123.945 11.2164 129.996 10.4601 129.996 10.4601C129.996 10.4601 127.992 11.6141 125.184 11.6531C122.393 11.5829 121.418 9.80505 121.418 8.49501C121.418 8.49501 121.317 7.49689 122.447 5.89054C123.414 4.46354 125.309 2.72463 128.499 1.4224C129.879 0.876551 131.672 0.533447 131.672 0.533447L131.68 0.533447Z" fill="#332018" fill-opacity="0.65"/>
    <path d="M127.407 8.16001C127.407 8.16001 130.198 6.82658 133.606 6.84218C137.006 6.85777 137.949 8.71365 137.949 10.0939C137.949 11.4741 137.224 12.9713 135.649 14.601C134.074 16.2307 131.68 18.0788 128.264 19.4512C125.465 20.5897 121.987 20.8003 121.987 20.8003C121.987 20.8003 127.173 19.2251 131.15 15.0923C135.119 10.9594 133.138 9.20491 132.662 8.76824C132.187 8.33156 131.095 7.51279 127.415 8.16001H127.407Z" fill="#332018" fill-opacity="0.65"/>
    <path d="M135.307 4.65999C136.307 4.05003 136.687 2.84917 136.156 1.97779C135.624 1.10641 134.383 0.894494 133.383 1.50445C132.383 2.11442 132.003 3.31528 132.534 4.18665C133.066 5.05803 134.307 5.26995 135.307 4.65999Z" fill="#332018" fill-opacity="0.65"/>
    <path d="M147.946 8.05084C147.868 8.32376 147.369 8.8852 146.87 9.33747C146.207 9.9457 145.264 10.7489 144.414 11.4273L143.462 10.3044C144.492 9.51682 145.49 8.66686 146.051 8.10542C146.87 7.28665 147.096 6.67062 147.096 5.54774V3.2006H148.703V5.48536C148.703 6.48348 148.765 7.01373 149.537 7.72333C150.293 8.41733 151.206 9.13473 152.157 9.82874L151.221 10.936C150.387 10.3122 149.646 9.69617 148.874 9.05675C148.391 8.65127 148.055 8.30037 147.954 8.05863H147.938L147.946 8.05084ZM148.055 15.7863H156.033V17.1665H146.465V12.1837H148.055V15.7863ZM154.145 13.0492V7.23207H151.174V5.86745H154.145V2.50659H155.721V13.057H154.145V13.0492Z" fill="#332018" fill-opacity="0.65"/>
    <path d="M158.856 11.2323V6.56925H163.885V4.6042H158.809V3.25518H165.468V7.88708H160.438V9.88332H161.787C163.394 9.88332 165.632 9.77415 167.043 9.56361L167.176 10.897C165.78 11.1232 163.331 11.2323 161.632 11.2323H158.863H158.856ZM162.505 15.7785H170.482V17.1587H160.914V12.7217H162.505V15.7785ZM168.595 13.1428V2.50659H170.17V13.1506H168.595V13.1428Z" fill="#332018" fill-opacity="0.65"/>
    <path d="M172.782 7.34135V6.4446C172.782 4.62771 174.248 2.99017 176.642 2.99017C179.036 2.99017 180.502 4.62771 180.502 6.4446V7.34135C180.502 9.15824 179.036 10.7958 176.642 10.7958C174.248 10.7958 172.782 9.15824 172.782 7.34135ZM174.693 6.58496V7.19319C174.693 8.16012 175.434 9.04127 176.635 9.04127C177.835 9.04127 178.576 8.16012 178.576 7.19319V6.58496C178.576 5.61803 177.835 4.73688 176.635 4.73688C175.434 4.73688 174.693 5.61803 174.693 6.58496ZM177.266 15.4901H184.986V17.229H175.223V12.215H177.266V15.4979V15.4901ZM184.744 13.0805H182.717V2.43652H184.744V13.0805Z" fill="#332018" fill-opacity="0.65"/>
    <path d="M187.614 3.5984H194.608V5.32171H189.641V7.73124H194.094V9.45455H189.641V11.9966H190.749C192.277 11.9966 194.172 11.9343 195.685 11.7237L195.895 13.4314C194.398 13.6732 192.23 13.72 190.265 13.72H187.614V3.5984ZM194.913 7.66886H197.369V2.43652H199.412V17.3849H197.369V9.39217H194.913V7.65326V7.66886Z" fill="#332018" fill-opacity="0.65"/>
    <path d="M203.732 3.41905V8.64358C205.502 8.65918 206.625 8.5812 208.06 8.38625L208.286 10.0082C206.789 10.2967 205.44 10.3435 201.728 10.3435V3.41905H203.74H203.732ZM208.777 14.913C208.684 15.2015 208.083 15.5758 207.218 16.0203C206.188 16.5506 205.019 17.0964 203.919 17.5487L203.116 15.88C204.309 15.3965 205.658 14.8039 206.586 14.3048C207.342 13.8993 207.693 13.408 207.693 12.5815V11.3104H209.752V12.5815C209.752 13.4002 210.056 13.8837 210.844 14.3048C211.764 14.7883 213.206 15.4277 214.329 15.88L213.542 17.5019C212.45 17.034 211.272 16.4882 210.259 15.9735C209.424 15.5524 208.894 15.1859 208.777 14.913ZM209.128 7.11521H206.266V5.39189H209.128V2.62367H211.038V10.6008H209.128V7.11521ZM212.068 2.43652H213.994V12.0512H212.068V2.43652Z" fill="#332018" fill-opacity="0.65"/>
    <path d="M229.402 14.0004V15.3494H215.803V14.0004H220.723V8.6121H222.314V14.0004H229.402ZM227.406 3.83984V5.7893C227.406 8.66669 227.227 10.273 226.86 12.2849L225.269 12.0899C225.651 10.0625 225.815 8.34698 225.815 6.35074V5.22785H217.472V3.84764H227.406V3.83984Z" fill="#332018" fill-opacity="0.65"/>
    <path d="M243.875 9.38383V10.7328H230.276V9.38383H243.875ZM241.785 3.052V4.40102H233.863V6.76376H241.887V8.11278H232.287V3.052H241.785ZM232.443 15.0762V14.5304C232.443 12.9864 234.245 11.8635 237.075 11.8635C239.906 11.8635 241.707 13.002 241.707 14.5304V15.0762C241.707 16.5734 239.921 17.7431 237.075 17.7431C234.229 17.7431 232.443 16.589 232.443 15.0762ZM234.019 14.624V14.9749C234.019 15.7468 235.258 16.4408 237.075 16.4408C238.892 16.4408 240.132 15.7468 240.132 14.9749V14.624C240.132 13.852 238.892 13.158 237.075 13.158C235.258 13.158 234.019 13.852 234.019 14.624Z" fill="#332018" fill-opacity="0.65"/>
    <path d="M253.435 5.39946H244.928V4.06603H248.398V2.31152H249.973V4.06603H253.427V5.39946H253.435ZM245.731 8.98645V8.4718C245.731 7.23194 246.807 5.9453 249.185 5.9453C251.564 5.9453 252.64 7.24754 252.64 8.4718V8.98645C252.64 10.2107 251.564 11.5129 249.185 11.5129C246.807 11.5129 245.731 10.2107 245.731 8.98645ZM247.08 12.5267H256.453V17.4783H254.862V13.8913H247.08V12.5267ZM251.135 8.90847V8.55757C251.135 7.91035 250.511 7.22414 249.193 7.22414C247.875 7.22414 247.251 7.91815 247.251 8.55757V8.90847C247.251 9.54789 247.891 10.2419 249.193 10.2419C250.495 10.2419 251.135 9.54789 251.135 8.90847ZM258.566 7.78559H256.461V11.7547H254.886V2.50647H256.461V6.39758H258.566V7.77779V7.78559Z" fill="#332018" fill-opacity="0.65"/>
    <path d="M272.828 14.0004V15.3494H259.229V14.0004H262.317V8.8694H263.876V14.0004H265.841V8.8694H267.401V14.0004H272.836H272.828ZM270.98 3.82422V5.76587C270.98 8.64327 270.871 10.2496 270.512 12.2615L268.937 12.0665C269.343 10.0235 269.405 8.32356 269.405 6.32732V5.20443H260.897V3.82422H270.98Z" fill="#332018" fill-opacity="0.65"/>
</svg>
