<svg width="162" height="52" viewBox="0 0 162 52" fill="none" xmlns="http://www.w3.org/2000/svg">
<path d="M8.09444 6.032V7.104C8.09444 7.86133 8.3291 8.592 8.79844 9.296C9.27844 10 9.90777 10.6027 10.6864 11.104C11.4758 11.5947 12.3131 11.92 13.1984 12.08L12.5424 13.28C11.4118 13.024 10.3718 12.544 9.42244 11.84C8.4731 11.136 7.77444 10.2987 7.32644 9.328C6.86777 10.3093 6.16377 11.152 5.21444 11.856C4.27577 12.56 3.2411 13.0347 2.11044 13.28L1.47044 12.08C2.3451 11.92 3.17177 11.5893 3.95044 11.088C4.73977 10.5867 5.3691 9.984 5.83844 9.28C6.31844 8.576 6.55844 7.85067 6.55844 7.104V6.032H8.09444ZM0.990438 16.144H13.7744V17.344H0.990438V16.144ZM26.2388 6.496V8.208C26.2388 9.56267 26.2015 10.7307 26.1268 11.712C26.0628 12.6827 25.8975 13.8187 25.6308 15.12L24.1748 14.992C24.4308 13.8933 24.6068 12.7253 24.7028 11.488L16.3028 11.936L16.0948 10.736L24.7668 10.4C24.7881 9.89867 24.7988 9.168 24.7988 8.208V7.68H16.4788V6.496H26.2388ZM14.9748 16.112H27.7428V17.328H14.9748V16.112ZM34.6072 11.712V10.656H30.6072V7.552H38.6712V6.512H30.5752V5.472H40.1112V8.512H32.0312V9.616H40.3832V10.656H36.0792V11.712H41.7432V12.784H28.9592V11.712H34.6072ZM30.4632 13.76H40.1592V16.864H31.9352V18.048H40.5912V19.088H30.4952V15.872H38.7352V14.8H30.4632V13.76ZM45.6796 7.456V5.504H47.1196V7.456H49.8556V8.64H42.9116V7.456H45.6796ZM43.3596 12.752C43.3596 12.1333 43.4876 11.5787 43.7436 11.088C44.0102 10.5973 44.3729 10.2133 44.8316 9.936C45.2902 9.65867 45.8129 9.52 46.3996 9.52C46.9756 9.52 47.4929 9.65867 47.9516 9.936C48.4209 10.2133 48.7836 10.5973 49.0396 11.088C49.3062 11.5787 49.4396 12.1333 49.4396 12.752C49.4396 13.392 49.3062 13.9573 49.0396 14.448C48.7836 14.9387 48.4262 15.3227 47.9676 15.6C47.5089 15.8773 46.9862 16.016 46.3996 16.016C45.8129 16.016 45.2902 15.8773 44.8316 15.6C44.3729 15.3227 44.0102 14.9387 43.7436 14.448C43.4876 13.9573 43.3596 13.392 43.3596 12.752ZM44.6556 12.752C44.6556 13.36 44.8156 13.8507 45.1356 14.224C45.4662 14.5973 45.8876 14.784 46.3996 14.784C46.9116 14.784 47.3276 14.5973 47.6476 14.224C47.9782 13.8507 48.1436 13.36 48.1436 12.752C48.1436 12.1547 47.9782 11.6693 47.6476 11.296C47.3276 10.9227 46.9116 10.736 46.3996 10.736C45.8876 10.736 45.4662 10.9227 45.1356 11.296C44.8156 11.6693 44.6556 12.1547 44.6556 12.752ZM50.5116 5.424H51.8876V11.008H53.5196V5.104H54.9116V19.216H53.5196V12.208H51.8876V18.544H50.5116V5.424ZM67.1199 9.824V5.088H68.5759V19.248H67.1199V11.008H63.9839V9.824H67.1199ZM56.8639 15.104C57.5573 14.7627 58.1759 14.256 58.7199 13.584C59.2746 12.912 59.7066 12.1493 60.0159 11.296C60.3253 10.4427 60.4799 9.57867 60.4799 8.704V6.288H61.9359V8.704C61.9359 9.55733 62.0853 10.4 62.3839 11.232C62.6933 12.0533 63.1146 12.784 63.6479 13.424C64.1919 14.0533 64.8106 14.5333 65.5039 14.864L64.6399 16.032C63.8613 15.6373 63.1733 15.0613 62.5759 14.304C61.9893 13.536 61.5359 12.6613 61.2159 11.68C60.9066 12.704 60.4479 13.6213 59.8399 14.432C59.2426 15.2427 58.5546 15.856 57.7759 16.272L56.8639 15.104ZM81.7038 6.432V7.616H76.7438V14.56C78.0238 14.56 79.1011 14.5333 79.9758 14.48C80.8505 14.416 81.7251 14.2987 82.5998 14.128L82.7598 15.312C81.7998 15.4933 80.8505 15.616 79.9118 15.68C78.9731 15.744 77.7998 15.776 76.3918 15.776H75.3038V6.432H81.7038ZM80.9198 10.176H84.8078V5.104H86.2798V19.248H84.8078V11.376H80.9198V10.176ZM103.264 5.12V8.08H105.296V9.28H103.264V12.256H101.792V5.12H103.264ZM92.5117 8.752C92.5117 8.144 92.6664 7.6 92.9757 7.12C93.2957 6.64 93.733 6.26667 94.2877 6C94.8424 5.73333 95.4664 5.6 96.1597 5.6C96.8637 5.6 97.493 5.73333 98.0477 6C98.613 6.26667 99.0504 6.64 99.3597 7.12C99.6797 7.6 99.8397 8.144 99.8397 8.752C99.8397 9.36 99.6797 9.904 99.3597 10.384C99.0504 10.8533 98.613 11.2213 98.0477 11.488C97.493 11.7547 96.8637 11.888 96.1597 11.888C95.4664 11.888 94.8424 11.7547 94.2877 11.488C93.733 11.2213 93.2957 10.8533 92.9757 10.384C92.6664 9.904 92.5117 9.36 92.5117 8.752ZM93.9197 8.752C93.9197 9.328 94.1277 9.80267 94.5437 10.176C94.9704 10.5387 95.509 10.72 96.1597 10.72C96.821 10.72 97.365 10.5387 97.7917 10.176C98.2184 9.80267 98.4317 9.328 98.4317 8.752C98.4317 8.16533 98.2184 7.69067 97.7917 7.328C97.365 6.95467 96.821 6.768 96.1597 6.768C95.509 6.768 94.9704 6.95467 94.5437 7.328C94.1277 7.69067 93.9197 8.16533 93.9197 8.752ZM94.2397 12.896H103.264V16.464H95.7117V17.872H103.744V19.04H94.2557V15.376H101.824V14.048H94.2397V12.896ZM110.016 6.176C110.709 6.176 111.328 6.37867 111.872 6.784C112.416 7.18933 112.837 7.76533 113.136 8.512C113.445 9.25867 113.6 10.128 113.6 11.12C113.6 12.112 113.445 12.9867 113.136 13.744C112.837 14.4907 112.416 15.0667 111.872 15.472C111.328 15.8773 110.709 16.08 110.016 16.08C109.323 16.08 108.704 15.8773 108.16 15.472C107.616 15.0667 107.189 14.4907 106.88 13.744C106.581 12.9867 106.432 12.112 106.432 11.12C106.432 10.128 106.581 9.25867 106.88 8.512C107.189 7.76533 107.616 7.18933 108.16 6.784C108.704 6.37867 109.323 6.176 110.016 6.176ZM107.84 11.12C107.84 12.2293 108.037 13.1147 108.432 13.776C108.837 14.4373 109.365 14.768 110.016 14.768C110.443 14.768 110.821 14.6187 111.152 14.32C111.483 14.0213 111.739 13.6 111.92 13.056C112.112 12.5013 112.208 11.856 112.208 11.12C112.208 10.0107 112.005 9.13067 111.6 8.48C111.195 7.81867 110.667 7.488 110.016 7.488C109.365 7.488 108.837 7.81867 108.432 8.48C108.037 9.13067 107.84 10.0107 107.84 11.12ZM115.696 5.12H117.168V10.688H119.408V11.904H117.168V19.232H115.696V5.12ZM125.888 16.24V13.312H121.712V6.08H123.168V8.512H130.08V6.08H131.536V13.312H127.344V16.24H133.024V17.456H120.24V16.24H125.888ZM130.08 12.144V9.696H123.168V12.144H130.08ZM141.969 10.096V5.408H143.329V18.528H141.969V11.296H139.777V10.096H141.969ZM134.033 15.152C134.982 14.576 135.723 13.728 136.257 12.608C136.79 11.4773 137.057 10.2827 137.057 9.024V6.432H138.465V8.976C138.465 10.16 138.71 11.2853 139.201 12.352C139.691 13.4187 140.39 14.2347 141.297 14.8L140.465 15.936C139.835 15.552 139.291 15.024 138.833 14.352C138.385 13.68 138.033 12.9173 137.777 12.064C137.51 12.9813 137.131 13.8027 136.641 14.528C136.161 15.2533 135.59 15.824 134.929 16.24L134.033 15.152ZM144.833 5.104H146.241V19.216H144.833V5.104ZM151.281 16.24V12.512C150.695 12.192 150.236 11.7867 149.905 11.296C149.585 10.7947 149.425 10.2347 149.425 9.616C149.425 8.89067 149.644 8.25067 150.081 7.696C150.529 7.14133 151.143 6.71467 151.921 6.416C152.7 6.10667 153.585 5.952 154.577 5.952C155.58 5.952 156.471 6.10667 157.249 6.416C158.039 6.71467 158.652 7.14133 159.089 7.696C159.527 8.25067 159.745 8.89067 159.745 9.616C159.745 10.2347 159.585 10.7893 159.265 11.28C158.956 11.76 158.513 12.1653 157.937 12.496V16.24H160.993V17.44H148.209V16.24H151.281ZM150.849 9.616C150.849 10.1173 151.004 10.56 151.313 10.944C151.633 11.3173 152.076 11.6107 152.641 11.824C153.207 12.0267 153.852 12.128 154.577 12.128C155.303 12.128 155.948 12.0267 156.513 11.824C157.079 11.6107 157.521 11.3173 157.841 10.944C158.161 10.56 158.321 10.1173 158.321 9.616C158.321 9.11467 158.161 8.67733 157.841 8.304C157.521 7.92 157.079 7.62667 156.513 7.424C155.948 7.21067 155.303 7.104 154.577 7.104C153.852 7.104 153.207 7.21067 152.641 7.424C152.076 7.62667 151.633 7.92 151.313 8.304C151.004 8.67733 150.849 9.11467 150.849 9.616ZM156.465 16.24V13.056C155.911 13.1947 155.281 13.264 154.577 13.264C153.895 13.264 153.276 13.1947 152.721 13.056V16.24H156.465Z" fill="white"/>
<mask id="mask0_575_1276" style="mask-type:alpha" maskUnits="userSpaceOnUse" x="69" y="28" width="24" height="24">
<rect x="69" y="28" width="24" height="24" fill="#D9D9D9"/>
</mask>
<g mask="url(#mask0_575_1276)">
<path d="M81.0001 42.6501C80.8834 42.6501 80.7711 42.6334 80.6631 42.6001C80.5544 42.5667 80.4584 42.5001 80.3751 42.4001L75.8501 37.9001C75.7168 37.7501 75.6501 37.5751 75.6501 37.3751C75.6501 37.1751 75.7251 37.0001 75.8751 36.8501C76.0251 36.7167 76.2001 36.6501 76.4001 36.6501C76.6001 36.6501 76.7751 36.7167 76.9251 36.8501L81.0001 40.9251L85.1001 36.8501C85.2334 36.7001 85.4001 36.6291 85.6001 36.6371C85.8001 36.6457 85.9751 36.7167 86.1251 36.8501C86.2751 37.0001 86.3501 37.1791 86.3501 37.3871C86.3501 37.5957 86.2751 37.7667 86.1251 37.9001L81.6251 42.4001C81.5418 42.5001 81.4461 42.5667 81.3381 42.6001C81.2294 42.6334 81.1168 42.6501 81.0001 42.6501Z" fill="white"/>
</g>
</svg>
