<svg width="200" height="200" viewBox="0 0 200 200" fill="none" xmlns="http://www.w3.org/2000/svg">
    <g filter="url(#filter0_d_575_1260)">
        <path fill-rule="evenodd" clip-rule="evenodd" d="M111.02 100C111.02 106.086 106.086 111.02 100 111.02C93.9136 111.02 88.9796 106.086 88.9796 100C88.9796 93.9136 93.9136 88.9796 100 88.9796C106.086 88.9796 111.02 93.9136 111.02 100ZM102.204 100C102.204 101.217 101.217 102.204 100 102.204C98.7827 102.204 97.7959 101.217 97.7959 100C97.7959 98.7827 98.7827 97.7959 100 97.7959C101.217 97.7959 102.204 98.7827 102.204 100Z" fill="white"/>
        <path fill-rule="evenodd" clip-rule="evenodd" d="M100 123.51C112.984 123.51 123.51 112.984 123.51 100C123.51 87.0157 112.984 76.4898 100 76.4898C87.0157 76.4898 76.4898 87.0157 76.4898 100C76.4898 112.984 87.0157 123.51 100 123.51ZM100 114.694C108.115 114.694 114.694 108.115 114.694 100C114.694 91.8848 108.115 85.3061 100 85.3061C91.8848 85.3061 85.3061 91.8848 85.3061 100C85.3061 108.115 91.8848 114.694 100 114.694Z" fill="white"/>
        <path fill-rule="evenodd" clip-rule="evenodd" d="M100 136C119.882 136 136 119.882 136 100C136 80.1177 119.882 64 100 64C80.1177 64 64 80.1177 64 100C64 119.882 80.1177 136 100 136ZM100 127.184C115.013 127.184 127.184 115.013 127.184 100C127.184 84.9869 115.013 72.8163 100 72.8163C84.9869 72.8163 72.8163 84.9869 72.8163 100C72.8163 115.013 84.9869 127.184 100 127.184Z" fill="white"/>
    </g>
    <defs>
        <filter id="filter0_d_575_1260" x="0" y="0" width="200" height="200" filterUnits="userSpaceOnUse" color-interpolation-filters="sRGB">
            <feFlood flood-opacity="0" result="BackgroundImageFix"/>
            <feColorMatrix in="SourceAlpha" type="matrix" values="0 0 0 0 0 0 0 0 0 0 0 0 0 0 0 0 0 0 127 0" result="hardAlpha"/>
            <feOffset/>
            <feGaussianBlur stdDeviation="32"/>
            <feComposite in2="hardAlpha" operator="out"/>
            <feColorMatrix type="matrix" values="0 0 0 0 0.980392 0 0 0 0 0.698039 0 0 0 0 0.137255 0 0 0 0.5 0"/>
            <feBlend mode="normal" in2="BackgroundImageFix" result="effect1_dropShadow_575_1260"/>
            <feBlend mode="normal" in="SourceGraphic" in2="effect1_dropShadow_575_1260" result="shape"/>
        </filter>
    </defs>
</svg>
