<svg width="78" height="20" viewBox="0 0 78 20" fill="none" xmlns="http://www.w3.org/2000/svg">
    <path d="M0.292114 6.24879C0.292114 6.88525 0.639269 7.50241 1.43001 7.50241H2.2979V12.0154C2.2979 14.8505 3.35865 15.9884 5.94303 15.9884C6.63734 15.9884 7.46665 15.8341 7.92953 15.6413C9.5303 14.9855 8.75884 12.6905 7.42808 13.1919C7.08092 13.3076 6.67591 13.4233 6.38661 13.4233C5.53801 13.4233 5.24872 12.999 5.24872 11.9383V7.50241H7.31236C8.08382 7.50241 8.48883 6.86596 8.48883 6.22951C8.48883 5.61234 8.12239 4.97589 7.33165 4.97589H5.24872V3.14368C5.24872 2.31437 4.53512 1.90935 3.78295 1.90935C3.05007 1.90935 2.2979 2.31437 2.2979 3.14368V4.97589H1.4493C0.677842 4.97589 0.292114 5.63163 0.292114 6.24879Z" fill="white"/>
    <path d="M10.0135 14.8312C10.0135 15.6606 10.7464 16.0656 11.4986 16.0656C12.2315 16.0656 12.9643 15.6606 12.9643 14.8312V9.14175C13.3694 7.92671 14.1022 7.44455 15.0858 7.44455C16.4166 7.44455 17.0723 8.19672 17.0723 9.27676V14.8312C17.0723 15.6606 17.8052 16.0656 18.5381 16.0656C19.271 16.0656 20.0232 15.6606 20.0232 14.8312V8.71745C20.0232 6.11379 18.2295 4.8216 16.1273 4.8216C14.9894 4.8216 13.7937 5.22662 12.9643 6.21022V1.40791C12.9643 0.597879 12.2315 0.192864 11.4986 0.192864C10.7464 0.192864 10.0135 0.597879 10.0135 1.40791V14.8312Z" fill="white"/>
    <path d="M21.7457 14.8312C21.7457 15.6606 22.4593 16.0656 23.2115 16.0656C23.9444 16.0656 24.6965 15.6606 24.6965 14.8312V6.03664C24.6965 5.22662 23.9636 4.80231 23.2308 4.80231C22.4786 4.80231 21.7457 5.22662 21.7457 6.03664V14.8312ZM21.5528 1.79364C21.5528 2.7001 22.2664 3.41369 23.2115 3.41369C24.1372 3.41369 24.8894 2.7001 24.8894 1.79364C24.8894 0.867888 24.1372 0.135004 23.2115 0.135004C22.2664 0.135004 21.5528 0.867888 21.5528 1.79364Z" fill="white"/>
    <path d="M30.6045 4.74445C27.9429 4.74445 26.3422 6.21022 26.3422 8.06172C26.3422 9.87464 27.6344 10.9354 29.2544 11.2825L30.2766 11.4947C31.1638 11.7068 31.7809 12.0154 31.7809 12.6519C31.7809 13.2883 31.1252 13.6355 30.1416 13.6355C29.5244 13.6355 28.4444 13.3076 27.9236 13.0183C26.3614 12.2083 25.3393 14.5034 26.7472 15.352C27.6151 15.8727 28.7337 16.1234 30.1802 16.1234C32.8031 16.1234 34.6932 14.5805 34.6932 12.4976C34.6932 10.8197 33.536 9.72035 31.6845 9.33462L30.7395 9.14175C29.8137 8.94889 29.2737 8.64031 29.2737 8.02314C29.2737 7.40598 29.7751 7.07811 30.8552 7.07811C31.4338 7.07811 32.3788 7.32883 32.8031 7.54098C34.2689 8.25458 35.2718 6.17165 33.8446 5.41948C33.2081 5.09161 32.1859 4.74445 30.6045 4.74445Z" fill="white"/>
    <path d="M39.2649 8.23529V4.16586C39.2649 3.78013 39.3613 3.6837 39.7278 3.6837H41.0007C43.0258 3.6837 43.7008 4.37801 43.7008 5.90164C43.7008 7.30955 43.045 8.23529 41.0007 8.23529H39.2649ZM36.2948 14.8312C36.2948 15.6606 37.0277 16.0656 37.7799 16.0656C38.5127 16.0656 39.2649 15.6606 39.2649 14.8312V10.7425H41.6179C44.8194 10.7425 46.7287 9.02604 46.7287 5.78592C46.7287 2.73867 44.9158 1.15718 41.4828 1.15718H38.6863C37.2013 1.15718 36.2948 1.6972 36.2948 3.29797V14.8312Z" fill="white"/>
    <path d="M47.8848 14.8312C47.8848 15.6606 48.6177 16.0656 49.3506 16.0656C50.0834 16.0656 50.8356 15.6606 50.8356 14.8312V1.23433C50.8356 0.424301 50.0834 0 49.3506 0C48.5984 0 47.8848 0.424301 47.8848 1.23433V14.8312Z" fill="white"/>
    <path d="M57.1836 4.70588C55.9299 4.70588 54.5027 4.97589 53.5577 5.41948C52.1884 6.03664 52.8055 8.44744 54.4642 7.77242C55.0428 7.54098 55.9107 7.29026 56.4507 7.29026C58.1093 7.29026 58.6493 7.73385 58.6493 8.75603V9.0839C58.0707 9.00675 56.8364 8.96818 55.9878 9.10318C54.3485 9.35391 52.2077 10.2604 52.2077 12.6905C52.2077 14.8891 53.6734 15.9691 55.5249 15.9691C56.74 15.9691 58.1479 15.5448 58.7265 14.6962V14.8698C58.7265 15.6413 59.4401 16.0849 60.1344 16.0849C60.8673 16.0849 61.5809 15.6413 61.5809 14.7541V8.52459C61.5809 5.86307 59.6522 4.70588 57.1836 4.70588ZM56.4314 13.6162C55.8721 13.6162 55.1585 13.3076 55.1585 12.5169C55.1585 11.4947 55.9107 11.244 56.6821 11.0897C57.1836 10.9932 58.2443 10.9932 58.6493 11.109V12.054C58.4757 12.9797 57.7236 13.6162 56.4314 13.6162Z" fill="white"/>
    <path d="M67.9868 12.0926L65.2867 5.72806C64.496 3.85728 61.6223 4.93732 62.4902 6.84667L66.4439 15.2748L66.386 15.4291C65.8267 16.8949 65.0938 17.4349 64.4574 17.4349C64.1295 17.4349 63.8017 17.4156 63.5509 17.3578C61.8923 16.972 61.5259 19.2864 62.8373 19.7686C63.3195 19.9421 63.9367 20 64.5345 20C66.0774 20 67.7361 19.0935 68.9897 16.2199L73.2713 6.57666C74.0234 4.87946 71.1883 3.93443 70.5133 5.63163L67.9868 12.0926Z" fill="white"/>
    <path d="M74.3706 15.8148C74.3706 16.7406 75.1035 17.4735 76.0293 17.4735C76.9357 17.4735 77.6879 16.7406 77.6879 15.8148C77.6879 14.9084 76.9357 14.1562 76.0293 14.1562C75.1035 14.1562 74.3706 14.9084 74.3706 15.8148ZM74.6792 11.1475C74.7371 12.8255 77.3215 12.8255 77.3793 11.1475L77.7072 1.65863C77.765 0.0192862 74.3128 0.0192862 74.3706 1.65863L74.6792 11.1475Z" fill="white"/>
</svg>
