<svg width="75" height="19" viewBox="0 0 75 19" fill="none" xmlns="http://www.w3.org/2000/svg">
    <path d="M0 5.93635C0 6.54098 0.336322 7.12729 1.10239 7.12729H1.94319V11.4147C1.94319 14.108 2.97084 15.189 5.47457 15.189C6.14722 15.189 6.95065 15.0424 7.39908 14.8592C8.9499 14.2363 8.20252 12.0559 6.91329 12.5323C6.57696 12.6422 6.18459 12.7522 5.90432 12.7522C5.0822 12.7522 4.80193 12.3491 4.80193 11.3414V7.12729H6.80118C7.54856 7.12729 7.94093 6.52266 7.94093 5.91803C7.94093 5.33173 7.58593 4.7271 6.81986 4.7271H4.80193V2.9865C4.80193 2.19865 4.1106 1.81389 3.3819 1.81389C2.67189 1.81389 1.94319 2.19865 1.94319 2.9865V4.7271H1.12107C0.373691 4.7271 0 5.35005 0 5.93635Z" fill="#7A6E69"/>
    <path d="M9.41805 14.0897C9.41805 14.8775 10.1281 15.2623 10.8568 15.2623C11.5668 15.2623 12.2768 14.8775 12.2768 14.0897V8.68467C12.6692 7.53038 13.3792 7.07232 14.3321 7.07232C15.6213 7.07232 16.2566 7.78688 16.2566 8.81292V14.0897C16.2566 14.8775 16.9666 15.2623 17.6766 15.2623C18.3866 15.2623 19.1153 14.8775 19.1153 14.0897V8.28158C19.1153 5.8081 17.3777 4.58052 15.3411 4.58052C14.2387 4.58052 13.0802 4.96528 12.2768 5.89971V1.33751C12.2768 0.567985 11.5668 0.183221 10.8568 0.183221C10.1281 0.183221 9.41805 0.567985 9.41805 1.33751V14.0897Z" fill="#7A6E69"/>
    <path d="M20.7841 14.0897C20.7841 14.8775 21.4755 15.2623 22.2042 15.2623C22.9142 15.2623 23.6429 14.8775 23.6429 14.0897V5.73481C23.6429 4.96528 22.9328 4.5622 22.2228 4.5622C21.4941 4.5622 20.7841 4.96528 20.7841 5.73481V14.0897ZM20.5973 1.70395C20.5973 2.56509 21.2886 3.24301 22.2042 3.24301C23.101 3.24301 23.8297 2.56509 23.8297 1.70395C23.8297 0.824494 23.101 0.128254 22.2042 0.128254C21.2886 0.128254 20.5973 0.824494 20.5973 1.70395Z" fill="#7A6E69"/>
    <path d="M29.3664 4.50723C26.788 4.50723 25.2371 5.89971 25.2371 7.65863C25.2371 9.38091 26.489 10.3886 28.0585 10.7184L29.0488 10.92C29.9083 11.1215 30.5062 11.4147 30.5062 12.0193C30.5062 12.6239 29.8709 12.9537 28.918 12.9537C28.3201 12.9537 27.2738 12.6422 26.7693 12.3674C25.2558 11.5979 24.2656 13.7782 25.6295 14.5844C26.4703 15.0791 27.554 15.3173 28.9554 15.3173C31.4965 15.3173 33.3276 13.8515 33.3276 11.8727C33.3276 10.2787 32.2065 9.23433 30.4128 8.86789L29.4972 8.68467C28.6004 8.50145 28.0772 8.20829 28.0772 7.62199C28.0772 7.03568 28.563 6.7242 29.6093 6.7242C30.1699 6.7242 31.0854 6.96239 31.4965 7.16393C32.9165 7.84185 33.8881 5.86307 32.5054 5.14851C31.8888 4.83703 30.8986 4.50723 29.3664 4.50723Z" fill="#7A6E69"/>
    <path d="M37.7566 7.82353V3.95757C37.7566 3.59113 37.8501 3.49952 38.2051 3.49952H39.4382C41.4001 3.49952 42.0541 4.15911 42.0541 5.60656C42.0541 6.94407 41.4188 7.82353 39.4382 7.82353H37.7566ZM34.8792 14.0897C34.8792 14.8775 35.5892 15.2623 36.3179 15.2623C37.0279 15.2623 37.7566 14.8775 37.7566 14.0897V10.2054H40.0362C43.1378 10.2054 44.9876 8.57473 44.9876 5.49662C44.9876 2.60174 43.2312 1.09932 39.9054 1.09932H37.1961C35.7574 1.09932 34.8792 1.61234 34.8792 3.13308V14.0897Z" fill="#7A6E69"/>
    <path d="M46.1075 14.0897C46.1075 14.8775 46.8175 15.2623 47.5276 15.2623C48.2376 15.2623 48.9663 14.8775 48.9663 14.0897V1.17261C48.9663 0.403086 48.2376 0 47.5276 0C46.7989 0 46.1075 0.403086 46.1075 1.17261V14.0897Z" fill="#7A6E69"/>
    <path d="M55.1161 4.47059C53.9016 4.47059 52.519 4.7271 51.6034 5.14851C50.2768 5.73481 50.8747 8.02507 52.4816 7.3838C53.0421 7.16393 53.8829 6.92575 54.4061 6.92575C56.013 6.92575 56.5362 7.34715 56.5362 8.31822V8.6297C55.9756 8.55641 54.7798 8.51977 53.9577 8.64802C52.3695 8.88621 50.2955 9.74735 50.2955 12.0559C50.2955 14.1446 51.7155 15.1707 53.5093 15.1707C54.6864 15.1707 56.0504 14.7676 56.6109 13.9614V14.1263C56.6109 14.8592 57.3022 15.2806 57.9749 15.2806C58.6849 15.2806 59.3762 14.8592 59.3762 14.0164V8.09836C59.3762 5.56991 57.5077 4.47059 55.1161 4.47059ZM54.3874 12.9354C53.8456 12.9354 53.1543 12.6422 53.1543 11.891C53.1543 10.92 53.8829 10.6818 54.6303 10.5352C55.1161 10.4436 56.1438 10.4436 56.5362 10.5535V11.4513C56.368 12.3308 55.6393 12.9354 54.3874 12.9354Z" fill="#7A6E69"/>
    <path d="M65.5822 11.4879L62.9664 5.44166C62.2003 3.66442 59.4163 4.69045 60.2571 6.50434L64.0875 14.5111L64.0314 14.6577C63.4896 16.0501 62.7796 16.5632 62.163 16.5632C61.8453 16.5632 61.5277 16.5448 61.2848 16.4899C59.6779 16.1234 59.3229 18.3221 60.5935 18.7801C61.0606 18.945 61.6585 19 62.2377 19C63.7325 19 65.3393 18.1389 66.5538 15.4089L70.7018 6.24783C71.4305 4.63549 68.6839 3.7377 68.0299 5.35005L65.5822 11.4879Z" fill="#7A6E69"/>
    <path d="M71.7669 15.0241C71.7669 15.9036 72.4769 16.5998 73.3737 16.5998C74.2519 16.5998 74.9806 15.9036 74.9806 15.0241C74.9806 14.163 74.2519 13.4484 73.3737 13.4484C72.4769 13.4484 71.7669 14.163 71.7669 15.0241ZM72.0658 10.5902C72.1219 12.1842 74.6256 12.1842 74.6817 10.5902L74.9993 1.5757C75.0554 0.0183218 71.7108 0.0183218 71.7669 1.5757L72.0658 10.5902Z" fill="#7A6E69"/>
</svg>
