<svg width="161" height="15" viewBox="0 0 161 15" fill="none" xmlns="http://www.w3.org/2000/svg">
<path d="M8.09444 1.032V2.104C8.09444 2.86133 8.3291 3.592 8.79844 4.296C9.27844 5 9.90777 5.60267 10.6864 6.104C11.4758 6.59467 12.3131 6.92 13.1984 7.08L12.5424 8.28C11.4118 8.024 10.3718 7.544 9.42244 6.84C8.4731 6.136 7.77444 5.29867 7.32644 4.328C6.86777 5.30933 6.16377 6.152 5.21444 6.856C4.27577 7.56 3.2411 8.03467 2.11044 8.28L1.47044 7.08C2.3451 6.92 3.17177 6.58933 3.95044 6.088C4.73977 5.58667 5.3691 4.984 5.83844 4.28C6.31844 3.576 6.55844 2.85067 6.55844 2.104V1.032H8.09444ZM0.990438 11.144H13.7744V12.344H0.990438V11.144ZM26.2388 1.496V3.208C26.2388 4.56267 26.2015 5.73067 26.1268 6.712C26.0628 7.68267 25.8975 8.81867 25.6308 10.12L24.1748 9.992C24.4308 8.89333 24.6068 7.72533 24.7028 6.488L16.3028 6.936L16.0948 5.736L24.7668 5.4C24.7881 4.89867 24.7988 4.168 24.7988 3.208V2.68H16.4788V1.496H26.2388ZM14.9748 11.112H27.7428V12.328H14.9748V11.112ZM34.6072 6.712V5.656H30.6072V2.552H38.6712V1.512H30.5752V0.471999H40.1112V3.512H32.0312V4.616H40.3832V5.656H36.0792V6.712H41.7432V7.784H28.9592V6.712H34.6072ZM30.4632 8.76H40.1592V11.864H31.9352V13.048H40.5912V14.088H30.4952V10.872H38.7352V9.8H30.4632V8.76ZM45.6796 2.456V0.504H47.1196V2.456H49.8556V3.64H42.9116V2.456H45.6796ZM43.3596 7.752C43.3596 7.13333 43.4876 6.57867 43.7436 6.088C44.0102 5.59733 44.3729 5.21333 44.8316 4.936C45.2902 4.65867 45.8129 4.52 46.3996 4.52C46.9756 4.52 47.4929 4.65867 47.9516 4.936C48.4209 5.21333 48.7836 5.59733 49.0396 6.088C49.3062 6.57867 49.4396 7.13333 49.4396 7.752C49.4396 8.392 49.3062 8.95733 49.0396 9.448C48.7836 9.93867 48.4262 10.3227 47.9676 10.6C47.5089 10.8773 46.9862 11.016 46.3996 11.016C45.8129 11.016 45.2902 10.8773 44.8316 10.6C44.3729 10.3227 44.0102 9.93867 43.7436 9.448C43.4876 8.95733 43.3596 8.392 43.3596 7.752ZM44.6556 7.752C44.6556 8.36 44.8156 8.85067 45.1356 9.224C45.4662 9.59733 45.8876 9.784 46.3996 9.784C46.9116 9.784 47.3276 9.59733 47.6476 9.224C47.9782 8.85067 48.1436 8.36 48.1436 7.752C48.1436 7.15467 47.9782 6.66933 47.6476 6.296C47.3276 5.92267 46.9116 5.736 46.3996 5.736C45.8876 5.736 45.4662 5.92267 45.1356 6.296C44.8156 6.66933 44.6556 7.15467 44.6556 7.752ZM50.5116 0.424H51.8876V6.008H53.5196V0.103999H54.9116V14.216H53.5196V7.208H51.8876V13.544H50.5116V0.424ZM67.1199 4.824V0.0879993H68.5759V14.248H67.1199V6.008H63.9839V4.824H67.1199ZM56.8639 10.104C57.5573 9.76267 58.1759 9.256 58.7199 8.584C59.2746 7.912 59.7066 7.14933 60.0159 6.296C60.3253 5.44267 60.4799 4.57867 60.4799 3.704V1.288H61.9359V3.704C61.9359 4.55733 62.0853 5.4 62.3839 6.232C62.6933 7.05333 63.1146 7.784 63.6479 8.424C64.1919 9.05333 64.8106 9.53333 65.5039 9.864L64.6399 11.032C63.8613 10.6373 63.1733 10.0613 62.5759 9.304C61.9893 8.536 61.5359 7.66133 61.2159 6.68C60.9066 7.704 60.4479 8.62133 59.8399 9.432C59.2426 10.2427 58.5546 10.856 57.7759 11.272L56.8639 10.104ZM81.7038 1.432V2.616H76.7438V9.56C78.0238 9.56 79.1011 9.53333 79.9758 9.48C80.8505 9.416 81.7251 9.29867 82.5998 9.128L82.7598 10.312C81.7998 10.4933 80.8505 10.616 79.9118 10.68C78.9731 10.744 77.7998 10.776 76.3918 10.776H75.3038V1.432H81.7038ZM80.9198 5.176H84.8078V0.103999H86.2798V14.248H84.8078V6.376H80.9198V5.176ZM103.264 0.119999V3.08H105.296V4.28H103.264V7.256H101.792V0.119999H103.264ZM92.5117 3.752C92.5117 3.144 92.6664 2.6 92.9757 2.12C93.2957 1.64 93.733 1.26667 94.2877 0.999999C94.8424 0.733333 95.4664 0.599999 96.1597 0.599999C96.8637 0.599999 97.493 0.733333 98.0477 0.999999C98.613 1.26667 99.0504 1.64 99.3597 2.12C99.6797 2.6 99.8397 3.144 99.8397 3.752C99.8397 4.36 99.6797 4.904 99.3597 5.384C99.0504 5.85333 98.613 6.22133 98.0477 6.488C97.493 6.75467 96.8637 6.888 96.1597 6.888C95.4664 6.888 94.8424 6.75467 94.2877 6.488C93.733 6.22133 93.2957 5.85333 92.9757 5.384C92.6664 4.904 92.5117 4.36 92.5117 3.752ZM93.9197 3.752C93.9197 4.328 94.1277 4.80267 94.5437 5.176C94.9704 5.53867 95.509 5.72 96.1597 5.72C96.821 5.72 97.365 5.53867 97.7917 5.176C98.2184 4.80267 98.4317 4.328 98.4317 3.752C98.4317 3.16533 98.2184 2.69067 97.7917 2.328C97.365 1.95467 96.821 1.768 96.1597 1.768C95.509 1.768 94.9704 1.95467 94.5437 2.328C94.1277 2.69067 93.9197 3.16533 93.9197 3.752ZM94.2397 7.896H103.264V11.464H95.7117V12.872H103.744V14.04H94.2557V10.376H101.824V9.048H94.2397V7.896ZM110.016 1.176C110.709 1.176 111.328 1.37867 111.872 1.784C112.416 2.18933 112.837 2.76533 113.136 3.512C113.445 4.25867 113.6 5.128 113.6 6.12C113.6 7.112 113.445 7.98667 113.136 8.744C112.837 9.49067 112.416 10.0667 111.872 10.472C111.328 10.8773 110.709 11.08 110.016 11.08C109.323 11.08 108.704 10.8773 108.16 10.472C107.616 10.0667 107.189 9.49067 106.88 8.744C106.581 7.98667 106.432 7.112 106.432 6.12C106.432 5.128 106.581 4.25867 106.88 3.512C107.189 2.76533 107.616 2.18933 108.16 1.784C108.704 1.37867 109.323 1.176 110.016 1.176ZM107.84 6.12C107.84 7.22933 108.037 8.11467 108.432 8.776C108.837 9.43733 109.365 9.768 110.016 9.768C110.443 9.768 110.821 9.61867 111.152 9.32C111.483 9.02133 111.739 8.6 111.92 8.056C112.112 7.50133 112.208 6.856 112.208 6.12C112.208 5.01067 112.005 4.13067 111.6 3.48C111.195 2.81867 110.667 2.488 110.016 2.488C109.365 2.488 108.837 2.81867 108.432 3.48C108.037 4.13067 107.84 5.01067 107.84 6.12ZM115.696 0.119999H117.168V5.688H119.408V6.904H117.168V14.232H115.696V0.119999ZM125.888 11.24V8.312H121.712V1.08H123.168V3.512H130.08V1.08H131.536V8.312H127.344V11.24H133.024V12.456H120.24V11.24H125.888ZM130.08 7.144V4.696H123.168V7.144H130.08ZM141.969 5.096V0.407999H143.329V13.528H141.969V6.296H139.777V5.096H141.969ZM134.033 10.152C134.982 9.576 135.723 8.728 136.257 7.608C136.79 6.47733 137.057 5.28267 137.057 4.024V1.432H138.465V3.976C138.465 5.16 138.71 6.28533 139.201 7.352C139.691 8.41867 140.39 9.23467 141.297 9.8L140.465 10.936C139.835 10.552 139.291 10.024 138.833 9.352C138.385 8.68 138.033 7.91733 137.777 7.064C137.51 7.98133 137.131 8.80267 136.641 9.528C136.161 10.2533 135.59 10.824 134.929 11.24L134.033 10.152ZM144.833 0.103999H146.241V14.216H144.833V0.103999ZM151.281 11.24V7.512C150.695 7.192 150.236 6.78667 149.905 6.296C149.585 5.79467 149.425 5.23467 149.425 4.616C149.425 3.89067 149.644 3.25067 150.081 2.696C150.529 2.14133 151.143 1.71467 151.921 1.416C152.7 1.10667 153.585 0.952 154.577 0.952C155.58 0.952 156.471 1.10667 157.249 1.416C158.039 1.71467 158.652 2.14133 159.089 2.696C159.527 3.25067 159.745 3.89067 159.745 4.616C159.745 5.23467 159.585 5.78933 159.265 6.28C158.956 6.76 158.513 7.16533 157.937 7.496V11.24H160.993V12.44H148.209V11.24H151.281ZM150.849 4.616C150.849 5.11733 151.004 5.56 151.313 5.944C151.633 6.31733 152.076 6.61067 152.641 6.824C153.207 7.02667 153.852 7.128 154.577 7.128C155.303 7.128 155.948 7.02667 156.513 6.824C157.079 6.61067 157.521 6.31733 157.841 5.944C158.161 5.56 158.321 5.11733 158.321 4.616C158.321 4.11467 158.161 3.67733 157.841 3.304C157.521 2.92 157.079 2.62667 156.513 2.424C155.948 2.21067 155.303 2.104 154.577 2.104C153.852 2.104 153.207 2.21067 152.641 2.424C152.076 2.62667 151.633 2.92 151.313 3.304C151.004 3.67733 150.849 4.11467 150.849 4.616ZM156.465 11.24V8.056C155.911 8.19467 155.281 8.264 154.577 8.264C153.895 8.264 153.276 8.19467 152.721 8.056V11.24H156.465Z" fill="white"/>
</svg>
